<svg xmlns="http://www.w3.org/2000/svg" xmlns:xlink="http://www.w3.org/1999/xlink" width="500" zoomAndPan="magnify" viewBox="0 0 375 374.999991" height="500" preserveAspectRatio="xMidYMid meet" version="1.0"><defs><g/><clipPath id="766c6bcd8e"><path d="M 196 326 L 208 326 L 208 327.929688 L 196 327.929688 Z M 196 326 " clip-rule="nonzero"/></clipPath><clipPath id="f981ebbb87"><path d="M 207 326 L 217 326 L 217 327.929688 L 207 327.929688 Z M 207 326 " clip-rule="nonzero"/></clipPath><clipPath id="5ca130cc46"><path d="M 224 327 L 231 327 L 231 327.929688 L 224 327.929688 Z M 224 327 " clip-rule="nonzero"/></clipPath><clipPath id="31295efef2"><path d="M 140 20.429688 L 149 20.429688 L 149 25 L 140 25 Z M 140 20.429688 " clip-rule="nonzero"/></clipPath><clipPath id="b5a0625ed2"><path d="M 298 240 L 301.386719 240 L 301.386719 244 L 298 244 Z M 298 240 " clip-rule="nonzero"/></clipPath><clipPath id="a6501d3888"><rect x="0" width="351" y="0" height="20"/></clipPath></defs><path fill="#b4b4b4" d="M 108.769531 283.953125 C 105.921875 281.023438 100.941406 276.203125 98.894531 274.910156 C 98.78125 274.851562 98.617188 274.804688 98.492188 274.804688 C 98.527344 276.191406 111.46875 288.726562 112.917969 288.773438 C 112.878906 288.269531 110.640625 285.875 108.769531 283.953125 " fill-opacity="1" fill-rule="nonzero"/><path fill="#b4b4b4" d="M 125.574219 296.089844 C 122.582031 293.535156 117.160156 289.359375 114.484375 288.320312 C 114.289062 288.269531 113.992188 288.1875 113.890625 288.28125 C 113.371094 288.75 116.769531 291.949219 120.269531 294.648438 C 124.757812 298.105469 128.847656 300.617188 129.582031 300.371094 C 129.824219 299.828125 127.175781 297.457031 125.574219 296.089844 " fill-opacity="1" fill-rule="nonzero"/><path fill="#b4b4b4" d="M 69.640625 230.769531 C 69.574219 230.703125 69.457031 230.636719 69.363281 230.632812 C 69.339844 232.449219 77.984375 248.980469 79 249.058594 C 79.011719 248.324219 77.285156 244.707031 76.253906 242.613281 C 74.453125 238.960938 71.066406 232.515625 69.640625 230.769531 " fill-opacity="1" fill-rule="nonzero"/><path fill="#b4b4b4" d="M 80.398438 248.507812 C 80.21875 248.421875 79.996094 248.320312 79.882812 248.433594 C 78.761719 249.574219 88.910156 264.574219 91.3125 265.328125 C 92.246094 265.617188 91.234375 263.125 88.851562 259.269531 C 86.628906 255.667969 82.535156 249.945312 80.398438 248.507812 " fill-opacity="1" fill-rule="nonzero"/><path fill="#b4b4b4" d="M 104.027344 274.140625 C 101.570312 270.859375 96.835938 265.714844 93.992188 264.550781 C 93.757812 264.488281 93.433594 264.40625 93.25 264.535156 C 91.292969 265.890625 102.734375 279.277344 106.269531 279.773438 C 107.574219 279.957031 106.648438 277.636719 104.027344 274.140625 " fill-opacity="1" fill-rule="nonzero"/><path fill="#b4b4b4" d="M 62.015625 211.488281 C 62.128906 211.847656 62.300781 212.367188 62.519531 213.007812 C 62.347656 212.492188 62.171875 211.96875 62.011719 211.476562 L 62.015625 211.488281 " fill-opacity="1" fill-rule="nonzero"/><path fill="#b4b4b4" d="M 74.605469 236.875 C 75.964844 237.644531 75.726562 234.589844 74.050781 229.765625 C 72.605469 225.605469 69.597656 219.050781 67.441406 217.515625 C 67.316406 217.460938 67.132812 217.371094 66.996094 217.398438 C 64.75 217.828125 71.503906 235.121094 74.605469 236.875 " fill-opacity="1" fill-rule="nonzero"/><path fill="#b4b4b4" d="M 87.238281 253.847656 C 89.097656 254.460938 88.964844 251.539062 86.925781 247.050781 C 85.167969 243.164062 81.351562 237.121094 78.382812 235.835938 C 78.125 235.777344 77.777344 235.699219 77.515625 235.859375 C 74.917969 237.492188 83.003906 252.453125 87.238281 253.847656 " fill-opacity="1" fill-rule="nonzero"/><path fill="#b4b4b4" d="M 102.074219 268.953125 C 104.78125 269.84375 104.992188 266.996094 102.542969 262.605469 C 100.226562 258.457031 95.660156 253.421875 92.3125 252.523438 C 91.988281 252.484375 91.546875 252.433594 91.207031 252.613281 C 88.007812 254.304688 96.542969 267.128906 102.074219 268.953125 " fill-opacity="1" fill-rule="nonzero"/><path fill="#b4b4b4" d="M 59.835938 197.855469 C 59.761719 197.792969 59.65625 197.714844 59.566406 197.691406 C 58.210938 198.535156 63.53125 217.929688 65.257812 218.441406 C 65.945312 218.015625 64.6875 212.558594 64.285156 210.894531 C 63.296875 206.816406 61.21875 199.671875 59.835938 197.855469 " fill-opacity="1" fill-rule="nonzero"/><path fill="#b4b4b4" d="M 73.445312 223.222656 C 75.632812 224.433594 76.429688 220.941406 75.21875 215.4375 C 74.257812 211.058594 71.585938 204.296875 68.65625 202.96875 C 68.460938 202.929688 68.1875 202.871094 67.992188 202.914062 C 64.226562 203.742188 68.761719 220.632812 73.445312 223.222656 " fill-opacity="1" fill-rule="nonzero"/><path fill="#b4b4b4" d="M 85.769531 240.613281 C 88.894531 242.203125 90.125 238.769531 88.402344 233.265625 C 87.097656 229.09375 83.546875 222.738281 79.746094 221.660156 C 79.492188 221.632812 79.140625 221.601562 78.890625 221.660156 C 74.433594 222.714844 79.832031 237.59375 85.769531 240.613281 " fill-opacity="1" fill-rule="nonzero"/><path fill="#b4b4b4" d="M 100.6875 256.300781 C 104.800781 258.195312 106.527344 254.90625 104.304688 249.398438 C 102.730469 245.5 98.503906 239.667969 94.027344 238.898438 C 93.617188 238.886719 93.058594 238.871094 92.5625 239.105469 C 88.386719 241.082031 94.15625 253.296875 100.6875 256.300781 " fill-opacity="1" fill-rule="nonzero"/><path fill="#b4b4b4" d="M 63.847656 204.132812 C 65.398438 205.511719 66.101562 202.070312 65.421875 196.457031 C 64.890625 192.070312 63.222656 185.207031 61.167969 183.675781 C 61.03125 183.621094 60.832031 183.542969 60.6875 183.570312 C 57.898438 184.066406 60.527344 201.171875 63.847656 204.132812 " fill-opacity="1" fill-rule="nonzero"/><path fill="#b4b4b4" d="M 79.796875 199.957031 C 79.316406 195.546875 76.980469 188.847656 73.304688 187.765625 C 73.039062 187.738281 72.679688 187.714844 72.425781 187.773438 C 67.878906 188.835938 69.789062 203.789062 74.984375 207.773438 C 78.160156 210.210938 80.5 206.414062 79.796875 199.957031 " fill-opacity="1" fill-rule="nonzero"/><path fill="#b4b4b4" d="M 93.027344 217.847656 C 92.144531 213.441406 88.902344 206.867188 84.449219 206.058594 C 84.128906 206.054688 83.695312 206.050781 83.382812 206.132812 C 78.214844 207.460938 80.9375 221.226562 87.222656 225.511719 C 91.507812 228.433594 94.382812 224.636719 93.027344 217.847656 " fill-opacity="1" fill-rule="nonzero"/><path fill="#b4b4b4" d="M 108.894531 234.476562 C 107.71875 230.273438 103.78125 224.117188 98.714844 223.597656 C 98.355469 223.609375 97.871094 223.632812 97.523438 223.734375 C 91.851562 225.351562 95.570312 238.402344 102.757812 242.105469 C 107.636719 244.617188 110.675781 240.839844 108.894531 234.476562 " fill-opacity="1" fill-rule="nonzero"/><path fill="#b4b4b4" d="M 66.003906 189.21875 C 68.199219 191.109375 70.046875 187.476562 69.957031 181.445312 C 69.894531 177.058594 68.566406 170.296875 65.8125 169.007812 C 65.613281 168.964844 65.332031 168.917969 65.132812 168.957031 C 61.207031 169.773438 61.890625 185.675781 66.003906 189.21875 " fill-opacity="1" fill-rule="nonzero"/><path fill="#b4b4b4" d="M 87.390625 183.804688 C 87.304688 179.375 85.277344 172.777344 81.042969 171.984375 C 80.882812 171.980469 80.667969 171.964844 80.507812 171.976562 C 74.882812 172.378906 74.253906 185.871094 79.609375 191.226562 C 83.464844 195.082031 87.535156 191.195312 87.390625 183.804688 " fill-opacity="1" fill-rule="nonzero"/><path fill="#b4b4b4" d="M 100.320312 201.167969 C 99.847656 196.71875 96.957031 190.214844 92.019531 189.683594 C 91.835938 189.691406 91.589844 189.6875 91.40625 189.707031 C 85.046875 190.46875 85.554688 204.066406 92.132812 209.109375 C 96.824219 212.703125 101.109375 208.550781 100.320312 201.167969 " fill-opacity="1" fill-rule="nonzero"/><path fill="#b4b4b4" d="M 115.980469 217.882812 C 115.160156 213.441406 111.515625 207.070312 105.984375 206.804688 C 105.777344 206.824219 105.503906 206.832031 105.300781 206.863281 C 98.765625 207.898438 99.71875 220.523438 106.714844 225.628906 C 112.378906 229.761719 117.398438 225.558594 115.980469 217.882812 " fill-opacity="1" fill-rule="nonzero"/><path fill="#b4b4b4" d="M 70.882812 173.324219 C 73.675781 176.554688 77.054688 172.820312 77.578125 165.925781 C 77.910156 161.558594 76.847656 154.945312 73.453125 153.910156 C 73.320312 153.898438 73.152344 153.871094 73.019531 153.871094 C 68.304688 153.953125 66.707031 168.496094 70.882812 173.324219 " fill-opacity="1" fill-rule="nonzero"/><path fill="#b4b4b4" d="M 87.300781 174.792969 C 91.273438 179.289062 96.625 175.230469 97.007812 167.425781 C 97.222656 163.015625 95.464844 156.566406 90.878906 156.046875 C 84.007812 156.339844 82.574219 169.4375 87.300781 174.792969 " fill-opacity="1" fill-rule="nonzero"/><path fill="#b4b4b4" d="M 109.660156 184.195312 C 109.492188 179.734375 106.882812 173.332031 101.597656 173.054688 C 93.875 173.730469 93.554688 186.996094 99.421875 192.128906 C 104.304688 196.402344 109.949219 192.027344 109.660156 184.195312 " fill-opacity="1" fill-rule="nonzero"/><path fill="#b4b4b4" d="M 113.609375 208.285156 C 119.457031 213.320312 125.960938 208.84375 125.015625 200.429688 C 124.511719 195.957031 121.15625 189.640625 115.269531 189.621094 C 107.261719 190.609375 107.316406 202.867188 113.609375 208.285156 " fill-opacity="1" fill-rule="nonzero"/><path fill="#b4b4b4" d="M 87.445312 150.277344 C 88.074219 145.953125 87.246094 139.523438 83.425781 138.769531 C 77.339844 138.691406 74.847656 152.726562 78.765625 157.601562 C 81.835938 161.421875 86.378906 157.585938 87.445312 150.277344 " fill-opacity="1" fill-rule="nonzero"/><path fill="#b4b4b4" d="M 137.054688 282.835938 C 141.851562 284.050781 143.753906 281.027344 141.125 276.363281 C 139.265625 273.0625 134.277344 268.332031 129.011719 268.148438 C 128.296875 268.203125 127.554688 268.257812 126.835938 268.761719 C 122.765625 271.59375 129.542969 280.9375 137.054688 282.835938 " fill-opacity="1" fill-rule="nonzero"/><path fill="#b4b4b4" d="M 145.8125 262.714844 C 144.320312 259.074219 139.585938 253.960938 133.726562 253.996094 C 133.183594 254.0625 132.4375 254.148438 131.742188 254.480469 C 126.390625 257.007812 130.601562 266.730469 138.367188 269.78125 C 144.351562 272.128906 148.175781 268.5 145.8125 262.714844 " fill-opacity="1" fill-rule="nonzero"/><path fill="#b4b4b4" d="M 152.894531 247.285156 C 151.722656 243.320312 147.207031 237.847656 140.839844 238.109375 C 140.609375 238.148438 140.296875 238.179688 140.0625 238.230469 C 133.058594 239.710938 134.347656 250.101562 142.089844 254.582031 C 148.957031 258.550781 155.015625 254.460938 152.894531 247.285156 " fill-opacity="1" fill-rule="nonzero"/><path fill="#b4b4b4" d="M 149.945312 220.570312 C 149.699219 220.617188 149.363281 220.660156 149.117188 220.722656 C 141.550781 222.546875 141.976562 233.820312 149.792969 238.457031 C 156.664062 242.539062 163.597656 237.804688 161.949219 230.15625 C 161.03125 225.886719 156.699219 220.085938 149.945312 220.570312 " fill-opacity="1" fill-rule="nonzero"/><path fill="#b4b4b4" d="M 138.207031 293.832031 C 141.492188 294.257812 141.898438 291.777344 139.132812 288.175781 C 136.867188 285.230469 131.609375 280.90625 127.019531 280.503906 C 126.40625 280.519531 125.769531 280.535156 125.246094 280.941406 C 122 283.449219 131.570312 292.96875 138.207031 293.832031 " fill-opacity="1" fill-rule="nonzero"/><path fill="#b4b4b4" d="M 141.796875 302.847656 C 143.628906 302.804688 142.921875 300.917969 140.035156 298.15625 C 137.515625 295.746094 132.007812 291.691406 127.957031 291.074219 C 127.449219 291.050781 126.929688 291.027344 126.605469 291.335938 C 124.472656 293.386719 137.105469 302.960938 141.796875 302.847656 " fill-opacity="1" fill-rule="nonzero"/><path fill="#b4b4b4" d="M 119.636719 257.023438 C 125.820312 260.0625 129.851562 256.054688 127.476562 249.226562 C 125.992188 244.953125 121.1875 238.820312 115.164062 238.574219 C 114.734375 238.609375 114.160156 238.660156 113.75 238.785156 C 107.402344 240.6875 111.359375 252.960938 119.636719 257.023438 " fill-opacity="1" fill-rule="nonzero"/><path fill="#b4b4b4" d="M 118.519531 270.925781 C 123.390625 272.582031 125.40625 269.097656 122.753906 263.617188 C 120.855469 259.691406 115.761719 253.941406 110.378906 253.4375 C 109.886719 253.453125 109.210938 253.472656 108.617188 253.75 C 103.5 256.136719 110.441406 268.171875 118.519531 270.925781 " fill-opacity="1" fill-rule="nonzero"/><path fill="#b4b4b4" d="M 64.25 162.785156 C 64.644531 158.09375 64.285156 150.78125 62.25 149.21875 C 62.097656 149.160156 61.875 149.085938 61.714844 149.113281 C 58.269531 149.710938 57.285156 168.015625 60.535156 171.121094 C 62.070312 172.59375 63.738281 168.851562 64.25 162.785156 " fill-opacity="1" fill-rule="nonzero"/><path fill="#b4b4b4" d="M 57.410156 163.25 C 57.324219 163.179688 57.191406 163.070312 57.082031 163.082031 C 55.011719 163.3125 55.949219 183.230469 58.136719 185.515625 C 59.0625 186.484375 59.671875 182.9375 59.558594 177.261719 C 59.460938 172.539062 58.730469 165.066406 57.410156 163.25 " fill-opacity="1" fill-rule="nonzero"/><path fill="#b4b4b4" d="M 133.898438 233.09375 C 132.855469 228.851562 128.671875 222.882812 122.640625 222.886719 C 122.203125 222.941406 121.617188 223.019531 121.199219 223.160156 C 114.832031 225.257812 116.75 236.53125 124.21875 240.894531 C 130.417969 244.519531 135.667969 240.289062 133.898438 233.09375 " fill-opacity="1" fill-rule="nonzero"/><path fill="#b4b4b4" d="M 131.140625 223.621094 C 137.640625 228.246094 144.398438 223.539062 142.996094 215.367188 C 142.226562 210.898438 138.273438 204.714844 131.878906 204.953125 C 131.644531 204.988281 131.324219 205.023438 131.089844 205.074219 C 123.839844 206.660156 123.871094 218.445312 131.140625 223.621094 " fill-opacity="1" fill-rule="nonzero"/><path fill="#b4b4b4" d="M 119.449219 282.191406 C 122.570312 282.847656 122.917969 280.195312 120.242188 276.148438 C 118.074219 272.871094 113.097656 267.945312 108.816406 267.257812 C 108.246094 267.238281 107.660156 267.214844 107.175781 267.617188 C 104.253906 270.027344 113.433594 280.925781 119.449219 282.191406 " fill-opacity="1" fill-rule="nonzero"/><path fill="#b4b4b4" d="M 123.222656 292.167969 C 124.851562 292.234375 124.058594 290.097656 121.289062 286.976562 C 118.683594 284.03125 113.449219 279.492188 109.972656 278.605469 C 109.515625 278.546875 109.082031 278.492188 108.835938 278.804688 C 107.183594 280.890625 119.152344 292.003906 123.222656 292.167969 " fill-opacity="1" fill-rule="nonzero"/><path fill="#b4b4b4" d="M 56.960938 144.449219 C 56.941406 144.40625 56.917969 144.351562 56.898438 144.308594 C 56.859375 144.304688 56.800781 144.304688 56.757812 144.300781 C 55.679688 146.121094 54.636719 162.730469 55.476562 164.726562 C 55.519531 164.730469 55.574219 164.730469 55.617188 164.734375 C 56.089844 163.867188 56.488281 159.730469 56.683594 157.339844 C 57.007812 153.324219 57.375 146.277344 56.960938 144.449219 " fill-opacity="1" fill-rule="nonzero"/><path fill="#b4b4b4" d="M 61.332031 143.585938 C 62.128906 139.359375 62.796875 132.714844 61.777344 131.171875 C 61.699219 131.109375 61.566406 131.027344 61.464844 131.039062 C 59.234375 131.285156 56.378906 149.042969 58.25 151.039062 C 59.042969 151.882812 60.367188 148.679688 61.332031 143.585938 " fill-opacity="1" fill-rule="nonzero"/><path fill="#b4b4b4" d="M 68.875 129.546875 C 70.058594 125.398438 71.023438 118.972656 69.449219 117.667969 C 69.382812 117.644531 69.292969 117.597656 69.222656 117.585938 C 66.15625 117.078125 61.605469 132.996094 63.753906 136.71875 C 64.867188 138.644531 67.210938 135.359375 68.875 129.546875 " fill-opacity="1" fill-rule="nonzero"/><path fill="#b4b4b4" d="M 72.050781 122.351562 C 73.371094 124.761719 76.636719 121.40625 78.902344 115.308594 C 80.40625 111.261719 81.605469 105.09375 79.566406 104.039062 C 75.753906 103.363281 69.710938 118.082031 72.050781 122.351562 " fill-opacity="1" fill-rule="nonzero"/><path fill="#b4b4b4" d="M 71.503906 147.488281 C 72.265625 143.214844 72.234375 136.65625 69.773438 135.460938 C 69.675781 135.445312 69.546875 135.40625 69.445312 135.398438 C 65.472656 135.1875 62.550781 150.4375 65.726562 154.824219 C 67.570312 157.367188 70.375 153.804688 71.503906 147.488281 " fill-opacity="1" fill-rule="nonzero"/><path fill="#b4b4b4" d="M 73.921875 139.566406 C 76.03125 142.671875 79.929688 139.027344 81.636719 132.34375 C 82.714844 128.144531 82.894531 121.808594 79.925781 120.871094 C 74.632812 120.449219 70.933594 135.167969 73.921875 139.566406 " fill-opacity="1" fill-rule="nonzero"/><path fill="#b4b4b4" d="M 108.90625 149.671875 C 109.351562 145.324219 107.8125 139.078125 103 138.816406 C 96.238281 139.433594 93.613281 151.5 97.644531 156.875 C 101.542969 162.070312 108.066406 157.898438 108.90625 149.671875 " fill-opacity="1" fill-rule="nonzero"/><path fill="#b4b4b4" d="M 121.277344 165.710938 C 121.339844 161.285156 118.949219 155.042969 113.4375 155.015625 C 105.699219 155.996094 104.101562 168.15625 109.351562 173.53125 C 114.246094 178.546875 121.15625 174.015625 121.277344 165.710938 " fill-opacity="1" fill-rule="nonzero"/><path fill="#b4b4b4" d="M 123.875 189.738281 C 129.613281 194.523438 136.839844 189.664062 136.34375 181.351562 C 136.078125 176.878906 132.949219 170.675781 126.824219 170.894531 C 118.390625 172.21875 117.648438 184.546875 123.875 189.738281 " fill-opacity="1" fill-rule="nonzero"/><path fill="#b4b4b4" d="M 142.765625 186.347656 C 134.371094 187.894531 133.78125 199.417969 139.980469 204.753906 C 146.398438 210.28125 154.71875 205.265625 153.671875 196.5 C 153.136719 192.003906 149.398438 185.882812 142.765625 186.347656 " fill-opacity="1" fill-rule="nonzero"/><path fill="#b4b4b4" d="M 95.8125 122.476562 C 89.585938 122.785156 86.058594 135.558594 89.476562 140.550781 C 92.488281 144.941406 98.078125 140.988281 99.621094 133.382812 C 100.476562 129.140625 99.863281 122.957031 95.8125 122.476562 " fill-opacity="1" fill-rule="nonzero"/><path fill="#b4b4b4" d="M 84.457031 124.03125 C 86.632812 127.648438 91.449219 123.964844 93.652344 116.996094 C 94.953125 112.902344 95.3125 106.832031 92.0625 106.167969 C 86.464844 106.148438 81.699219 119.453125 84.457031 124.03125 " fill-opacity="1" fill-rule="nonzero"/><path fill="#b4b4b4" d="M 100.691406 208.316406 L 100.625 208.433594 L 100.640625 208.445312 Z M 100.691406 208.316406 " fill-opacity="1" fill-rule="nonzero"/><path fill="#b4b4b4" d="M 104.828125 225.1875 L 104.953125 225.300781 L 104.839844 225.1875 C 104.835938 225.1875 104.832031 225.1875 104.828125 225.1875 " fill-opacity="1" fill-rule="nonzero"/><path fill="#b4b4b4" d="M 157.175781 280.378906 C 163.351562 282.804688 167.625 279.472656 165.195312 274.125 C 163.761719 270.972656 159.175781 266.644531 153.464844 266.898438 C 152.871094 266.988281 152.128906 267.101562 151.421875 267.457031 C 146.652344 269.871094 150.09375 277.601562 157.175781 280.378906 " fill-opacity="1" fill-rule="nonzero"/><path fill="#b4b4b4" d="M 156.253906 292.832031 C 160.949219 293.742188 162.878906 290.925781 160.300781 286.925781 C 158.636719 284.34375 154.011719 280.273438 148.691406 280.332031 C 148.339844 280.355469 147.269531 280.429688 146.4375 281.027344 C 142.691406 283.726562 149.113281 291.453125 156.253906 292.832031 " fill-opacity="1" fill-rule="nonzero"/><path fill="#b4b4b4" d="M 133.03125 147.785156 C 133.257812 143.636719 131.179688 137.867188 125.835938 138.023438 C 119.320312 138.707031 116.121094 149.214844 120.730469 154.804688 C 125.113281 160.128906 132.589844 155.863281 133.03125 147.785156 " fill-opacity="1" fill-rule="nonzero"/><path fill="#b4b4b4" d="M 115.597656 122.699219 C 109.167969 123.542969 106.171875 134.453125 109.695312 139.304688 C 113.164062 144.082031 119.664062 140.332031 120.914062 132.832031 C 121.601562 128.6875 120.410156 122.808594 115.597656 122.699219 " fill-opacity="1" fill-rule="nonzero"/><path fill="#b4b4b4" d="M 59.707031 131.015625 C 60.4375 130.625 61.726562 126.617188 62.425781 124.261719 C 62.707031 123.328125 65.132812 115.109375 64.773438 113.105469 C 64.742188 113.046875 64.679688 112.96875 64.617188 112.945312 C 64.582031 112.957031 64.535156 112.972656 64.503906 112.992188 C 62.84375 114.113281 58.449219 130.617188 59.707031 131.015625 " fill-opacity="1" fill-rule="nonzero"/><path fill="#b4b4b4" d="M 172.128906 259.230469 C 170.984375 256 167 251.367188 160.714844 251.855469 C 160.242188 251.941406 159.609375 252.058594 159.152344 252.21875 C 153.285156 254.308594 155 262.796875 161.976562 266.1875 C 167.992188 269.109375 174.484375 265.890625 172.128906 259.230469 " fill-opacity="1" fill-rule="nonzero"/><path fill="#b4b4b4" d="M 146.75 309.523438 C 147.621094 309.382812 145.667969 307.71875 143.546875 306.210938 C 141.144531 304.496094 135.757812 301.050781 132.578125 300.269531 C 132.199219 300.21875 131.871094 300.171875 131.785156 300.386719 C 131.191406 301.890625 144.335938 309.917969 146.75 309.523438 " fill-opacity="1" fill-rule="nonzero"/><path fill="#b4b4b4" d="M 156.964844 302.808594 C 160.265625 303.039062 160.714844 301.003906 158.027344 297.972656 C 156.269531 295.984375 151.628906 292.179688 146.660156 292.03125 C 145.996094 292.078125 145.367188 292.121094 144.847656 292.511719 C 141.8125 294.777344 150.757812 302.382812 156.964844 302.808594 " fill-opacity="1" fill-rule="nonzero"/><path fill="#b4b4b4" d="M 101.902344 123.667969 C 104.3125 127.21875 109.941406 124.5 111.800781 117.351562 C 112.484375 114.730469 113.234375 107.855469 108.589844 107.523438 C 102.714844 108.074219 98.945312 119.308594 101.902344 123.667969 " fill-opacity="1" fill-rule="nonzero"/><path fill="#b4b4b4" d="M 69.96875 111.261719 C 71.207031 108.21875 73.332031 102.082031 72.507812 100.640625 C 72.464844 100.613281 72.414062 100.5625 72.367188 100.546875 C 70.472656 99.898438 64.46875 114.929688 65.605469 117.480469 C 66.160156 118.726562 67.996094 116.113281 69.96875 111.261719 " fill-opacity="1" fill-rule="nonzero"/><path fill="#b4b4b4" d="M 139.042969 153.359375 C 131.101562 154.824219 130.375 165.488281 134.78125 170.078125 C 139.503906 175.007812 147.859375 171.539062 147.644531 162.789062 C 147.503906 157.042969 143.648438 152.8125 139.042969 153.359375 " fill-opacity="1" fill-rule="nonzero"/><path fill="#b4b4b4" d="M 171.816406 211.0625 C 171.132812 207.148438 167.675781 201.566406 160.945312 202.234375 C 152.980469 203.492188 152.847656 214.511719 159.019531 219.097656 C 164.921875 223.484375 173.296875 219.566406 171.816406 211.0625 " fill-opacity="1" fill-rule="nonzero"/><path fill="#b4b4b4" d="M 169.085938 249.941406 C 175.589844 254.015625 182.785156 249.804688 181.113281 242.898438 C 179.9375 238.046875 174.707031 234.414062 169.917969 235.125 C 169.671875 235.175781 169.34375 235.226562 169.105469 235.292969 C 162.507812 237.050781 162.496094 245.816406 169.085938 249.941406 " fill-opacity="1" fill-rule="nonzero"/><path fill="#b4b4b4" d="M 91.460938 91.011719 C 87.3125 90.75 81.652344 103.097656 83.226562 106.71875 C 84.367188 109.339844 88.121094 106.417969 90.664062 100.929688 C 92.21875 97.570312 93.8125 91.90625 91.460938 91.011719 " fill-opacity="1" fill-rule="nonzero"/><path fill="#b4b4b4" d="M 160.125 310.816406 C 161.742188 310.679688 161.195312 309.179688 158.796875 307.164062 C 155.53125 304.429688 150.273438 301.929688 147.542969 301.8125 C 147.042969 301.824219 146.566406 301.835938 146.261719 302.121094 C 144.210938 304.054688 155.613281 311.203125 160.125 310.816406 " fill-opacity="1" fill-rule="nonzero"/><path fill="#b4b4b4" d="M 104.953125 92.441406 C 100.300781 92.746094 95.0625 102.929688 97.175781 107.574219 C 98.859375 111.28125 103.945312 107.835938 106.246094 101.433594 C 107.5 97.953125 107.925781 92.859375 104.953125 92.441406 " fill-opacity="1" fill-rule="nonzero"/><path fill="#b4b4b4" d="M 74.324219 103.953125 C 74.9375 105.578125 77.640625 102.691406 80.113281 97.765625 C 81.761719 94.480469 83.703125 89.15625 82.628906 88.160156 C 82.625 88.15625 82.617188 88.152344 82.609375 88.148438 C 80.117188 87.183594 73.074219 100.625 74.324219 103.953125 " fill-opacity="1" fill-rule="nonzero"/><path fill="#b4b4b4" d="M 154.800781 168.402344 C 147.664062 169.519531 145.621094 179.945312 151.539062 185.046875 C 157.339844 190.050781 165.210938 185.320312 164.492188 177.261719 C 164.136719 173.234375 160.890625 167.824219 154.800781 168.402344 " fill-opacity="1" fill-rule="nonzero"/><path fill="#b4b4b4" d="M 184.429688 284.5 C 182.933594 280.898438 177.640625 277.960938 173.535156 278.457031 C 173.15625 278.523438 172.65625 278.617188 172.292969 278.746094 C 167.738281 280.367188 168.878906 286.507812 175.851562 289.464844 C 182.082031 292.105469 186.214844 288.808594 184.429688 284.5 " fill-opacity="1" fill-rule="nonzero"/><path fill="#b4b4b4" d="M 179.417969 296.320312 C 177.867188 293.949219 173.253906 290.777344 168.632812 290.992188 C 167.800781 291.078125 167.117188 291.308594 166.605469 291.683594 C 163.339844 294.050781 168.339844 299.824219 174.832031 301.183594 C 179.820312 302.230469 181.417969 299.378906 179.417969 296.320312 " fill-opacity="1" fill-rule="nonzero"/><path fill="#b4b4b4" d="M 138.558594 121.160156 C 133.179688 121.871094 129.289062 131.003906 133.5625 136.246094 C 137.507812 141.085938 144.390625 137.285156 145.070312 129.894531 C 145.425781 126.0625 143.359375 120.890625 138.558594 121.160156 " fill-opacity="1" fill-rule="nonzero"/><path fill="#b4b4b4" d="M 133.351562 115.386719 C 134.191406 110.582031 131.898438 106.460938 128.542969 106.742188 C 122.914062 107.683594 119.371094 117.0625 122.882812 121.714844 C 126.238281 126.164062 132.261719 121.621094 133.351562 115.386719 " fill-opacity="1" fill-rule="nonzero"/><path fill="#b4b4b4" d="M 74.390625 93.824219 C 75.085938 92.53125 78.554688 86.011719 78.433594 84.382812 C 78.414062 84.355469 78.398438 84.304688 78.371094 84.285156 C 77.285156 83.480469 69.988281 97.328125 70.566406 99.101562 C 70.792969 99.800781 72.257812 97.777344 74.390625 93.824219 " fill-opacity="1" fill-rule="nonzero"/><path fill="#b4b4b4" d="M 115.117188 106.679688 C 117.238281 110.375 122.925781 107.5625 124.679688 100.578125 C 125.480469 97.40625 125.355469 92.664062 121.75 92.597656 C 116.523438 93.296875 112.816406 102.675781 115.117188 106.679688 " fill-opacity="1" fill-rule="nonzero"/><path fill="#b4b4b4" d="M 151.558594 135.671875 C 145.265625 136.65625 142.738281 146.4375 147.582031 151.0625 C 152.28125 155.546875 159.578125 151.089844 159.410156 143.835938 C 159.328125 140.398438 157.128906 135.140625 151.558594 135.671875 " fill-opacity="1" fill-rule="nonzero"/><path fill="#b4b4b4" d="M 191.304688 270.097656 C 189.804688 266.230469 185.136719 263.59375 180.898438 264.21875 C 180.480469 264.304688 179.921875 264.417969 179.523438 264.5625 C 174.207031 266.472656 175.378906 273.386719 181.507812 276.308594 C 187.660156 279.238281 193.425781 275.582031 191.304688 270.097656 " fill-opacity="1" fill-rule="nonzero"/><path fill="#b4b4b4" d="M 176.972656 306.320312 C 174.355469 303.625 169.671875 301.570312 166.527344 301.742188 C 166.003906 301.796875 165.128906 301.890625 164.636719 302.40625 C 162.539062 304.613281 170.339844 310.140625 175.765625 310.292969 C 178.777344 310.378906 179.285156 308.707031 176.972656 306.320312 " fill-opacity="1" fill-rule="nonzero"/><path fill="#b4b4b4" d="M 104.625 78.019531 C 101.171875 77.699219 94.746094 87.96875 96.03125 91.753906 C 96.933594 94.40625 100.914062 92.246094 103.910156 86.316406 C 105.242188 83.683594 107.101562 78.558594 104.625 78.019531 " fill-opacity="1" fill-rule="nonzero"/><path fill="#b4b4b4" d="M 165.113281 316.875 C 165.878906 316.71875 164.726562 315.699219 162.035156 314.152344 C 161.371094 313.773438 155.449219 310.417969 151.707031 309.882812 C 151.3125 309.859375 150.941406 309.839844 150.816406 310.027344 C 149.964844 311.296875 162.660156 317.375 165.113281 316.875 " fill-opacity="1" fill-rule="nonzero"/><path fill="#b4b4b4" d="M 200.414062 254.644531 C 199.667969 251.621094 196.324219 247.417969 190.15625 248.226562 C 190.152344 248.230469 190.152344 248.230469 190.152344 248.230469 C 190.152344 248.230469 190.152344 248.230469 190.148438 248.230469 C 190.148438 248.230469 190.144531 248.230469 190.144531 248.230469 C 190.144531 248.230469 190.144531 248.230469 190.140625 248.230469 C 190.140625 248.230469 190.136719 248.230469 190.136719 248.230469 C 189.191406 248.449219 187.230469 248.902344 185.898438 250.703125 C 182.722656 254.996094 187.023438 263.222656 195.320312 262.125 C 195.320312 262.125 195.324219 262.125 195.324219 262.125 C 195.328125 262.125 195.328125 262.125 195.328125 262.125 C 195.328125 262.125 195.328125 262.125 195.332031 262.125 C 195.335938 262.125 195.335938 262.125 195.335938 262.121094 C 195.339844 262.121094 195.339844 262.121094 195.339844 262.121094 C 201.703125 260.65625 200.566406 255.253906 200.414062 254.644531 " fill-opacity="1" fill-rule="nonzero"/><path fill="#b4b4b4" d="M 191.285156 224.929688 C 190.679688 221.460938 187.246094 216.261719 180.617188 217.066406 C 172.890625 218.875 172.933594 228.328125 178.960938 232.289062 C 185.140625 236.347656 192.507812 231.945312 191.285156 224.929688 " fill-opacity="1" fill-rule="nonzero"/><path fill="#b4b4b4" d="M 172.734375 183.304688 C 165.601562 184.621094 164.097656 194.871094 170.367188 199.433594 C 176.375 203.804688 183.933594 198.878906 182.804688 191.328125 C 182.148438 186.914062 178.394531 182.601562 172.734375 183.304688 " fill-opacity="1" fill-rule="nonzero"/><path fill="#b4b4b4" d="M 66.769531 105.8125 C 67.8125 103.316406 70.269531 97.347656 70.578125 95.859375 C 70.582031 95.824219 70.582031 95.769531 70.585938 95.734375 C 70.558594 95.734375 70.523438 95.734375 70.5 95.734375 C 69.46875 97.003906 63.710938 110.632812 64.191406 111.472656 C 64.34375 111.261719 64.699219 110.765625 66.769531 105.8125 " fill-opacity="1" fill-rule="nonzero"/><path fill="#b4b4b4" d="M 150.109375 312.429688 C 143.3125 308.90625 141.375 308.054688 140.371094 307.691406 C 140.367188 307.691406 140.367188 307.691406 140.367188 307.691406 C 140.363281 307.691406 140.363281 307.691406 140.363281 307.691406 C 140.363281 307.691406 140.363281 307.6875 140.363281 307.6875 C 140.363281 307.6875 140.359375 307.6875 140.359375 307.6875 C 140.261719 307.660156 140.132812 307.621094 140.03125 307.609375 C 140.027344 307.628906 140.019531 307.664062 140.011719 307.6875 C 141.425781 309.023438 153.304688 314.761719 154.707031 314.976562 C 154.652344 314.863281 154.609375 314.765625 150.109375 312.429688 " fill-opacity="1" fill-rule="nonzero"/><path fill="#b4b4b4" d="M 85.441406 90.019531 C 85.941406 91.78125 88.710938 90.042969 91.886719 84.71875 C 92.070312 84.414062 96.339844 77.207031 94.496094 76.070312 C 91.324219 75.570312 84.640625 87.183594 85.441406 90.019531 " fill-opacity="1" fill-rule="nonzero"/><path fill="#b4b4b4" d="M 178.214844 317.257812 C 178.214844 317.257812 178.21875 317.257812 178.21875 317.257812 C 178.21875 317.257812 178.222656 317.257812 178.222656 317.257812 C 178.226562 317.257812 178.226562 317.257812 178.226562 317.257812 C 178.335938 317.25 178.480469 317.25 178.585938 317.234375 C 180.105469 317.058594 179.695312 315.949219 177.535156 314.40625 C 174.476562 312.21875 169.886719 310.46875 167.300781 310.5 C 166.839844 310.53125 166.363281 310.558594 166.0625 310.808594 C 164.414062 312.171875 172.792969 317.152344 178.214844 317.257812 " fill-opacity="1" fill-rule="nonzero"/><path fill="#b4b4b4" d="M 118.363281 78.648438 C 117.84375 78.703125 117.058594 78.785156 115.734375 79.863281 C 110.988281 83.714844 108.320312 92.863281 112.804688 93.191406 C 112.804688 93.191406 112.804688 93.191406 112.808594 93.191406 C 112.8125 93.191406 112.8125 93.191406 112.8125 93.191406 C 112.8125 93.191406 112.816406 93.191406 112.816406 93.191406 C 116.523438 92.808594 118.945312 87.3125 119.210938 86.6875 C 120.847656 82.804688 120.898438 78.648438 118.363281 78.648438 " fill-opacity="1" fill-rule="nonzero"/><path fill="#b4b4b4" d="M 88.566406 72.914062 C 87.386719 72.640625 78.515625 84.394531 79.703125 86.804688 C 79.707031 86.804688 79.707031 86.804688 79.707031 86.804688 C 79.707031 86.804688 79.707031 86.804688 79.707031 86.808594 C 80.734375 87.402344 84.316406 81.964844 84.722656 81.34375 C 86.003906 79.378906 89.207031 74.046875 88.679688 72.980469 C 88.644531 72.960938 88.605469 72.925781 88.566406 72.914062 " fill-opacity="1" fill-rule="nonzero"/><path fill="#b4b4b4" d="M 167.191406 150.027344 C 159.539062 151.824219 159.390625 161.402344 163.917969 165.234375 C 168.628906 169.21875 176.503906 165.621094 175.980469 157.988281 C 175.628906 152.820312 171.683594 149.246094 167.191406 150.027344 " fill-opacity="1" fill-rule="nonzero"/><path fill="#b4b4b4" d="M 184.972656 164.121094 C 178.621094 165.773438 176.785156 173.929688 181.753906 178.429688 C 187.476562 183.613281 194.871094 178.457031 194.285156 171.703125 C 193.96875 168.023438 190.554688 163.34375 184.972656 164.121094 " fill-opacity="1" fill-rule="nonzero"/><path fill="#b4b4b4" d="M 202.324219 205.351562 C 201.671875 200.53125 196.765625 196.816406 192.226562 197.707031 C 185.703125 199.425781 184.144531 207.933594 189.542969 212.382812 C 195.902344 217.628906 203.261719 212.332031 202.324219 205.351562 " fill-opacity="1" fill-rule="nonzero"/><path fill="#b4b4b4" d="M 210.8125 237.074219 C 210.023438 232.894531 205.207031 229.757812 200.894531 230.613281 C 194.488281 232.285156 193.261719 239.859375 198.773438 243.683594 C 205.070312 248.050781 211.957031 243.152344 210.8125 237.074219 " fill-opacity="1" fill-rule="nonzero"/><path fill="#b4b4b4" d="M 98.417969 76.445312 C 98.730469 78.707031 102.394531 75.75 105.175781 71.742188 C 107.171875 68.867188 109.199219 64.589844 107.824219 64.035156 C 104.898438 63.933594 97.953125 73.097656 98.417969 76.445312 " fill-opacity="1" fill-rule="nonzero"/><path fill="#b4b4b4" d="M 202.785156 293.140625 C 201.605469 290.234375 196.921875 287.902344 193.332031 288.433594 C 192.996094 288.5 192.546875 288.59375 192.226562 288.710938 C 188.417969 290.101562 188.929688 294.820312 194.441406 297.222656 C 200.078125 299.679688 204.292969 296.84375 202.785156 293.140625 " fill-opacity="1" fill-rule="nonzero"/><path fill="#b4b4b4" d="M 158.867188 316.035156 C 158.769531 316.023438 158.632812 316.007812 158.53125 316.007812 C 158.519531 316.03125 158.503906 316.066406 158.492188 316.089844 C 159.695312 317.277344 170.175781 320.941406 172.558594 321.304688 C 172.582031 321.285156 172.613281 321.257812 172.636719 321.238281 C 172.238281 320.984375 170.84375 320.382812 168.496094 319.449219 C 167.757812 319.15625 161.214844 316.570312 158.867188 316.035156 " fill-opacity="1" fill-rule="nonzero"/><path fill="#b4b4b4" d="M 110.082031 77.375 C 110.871094 79.828125 114.730469 77.269531 117.457031 72.480469 C 118.941406 69.878906 120.503906 65.613281 118.382812 65.246094 C 114.929688 65.492188 109.03125 74.105469 110.082031 77.375 " fill-opacity="1" fill-rule="nonzero"/><path fill="#b4b4b4" d="M 183.488281 322.242188 C 184.070312 321.902344 181.578125 320.707031 180.800781 320.347656 C 177.804688 318.960938 173.257812 317.410156 171.136719 317.320312 C 170.800781 317.324219 170.449219 317.328125 170.34375 317.503906 C 169.59375 318.742188 181.875 323.171875 183.488281 322.242188 " fill-opacity="1" fill-rule="nonzero"/><path fill="#b4b4b4" d="M 151.074219 104.621094 C 145.765625 105.804688 143.140625 113.945312 146.753906 118.019531 C 150.273438 121.988281 156.425781 118.308594 156.886719 111.964844 C 157.203125 107.640625 154.433594 104.140625 151.074219 104.621094 " fill-opacity="1" fill-rule="nonzero"/><path fill="#b4b4b4" d="M 141.269531 91.207031 C 136.535156 92.152344 133.347656 99.90625 136.023438 103.972656 C 138.664062 107.980469 144.414062 104.667969 145.492188 98.519531 C 146.21875 94.355469 144.207031 90.871094 141.269531 91.207031 " fill-opacity="1" fill-rule="nonzero"/><path fill="#b4b4b4" d="M 192.890625 307.964844 C 197.542969 308.9375 199.390625 306.601562 197.636719 304.007812 C 195.957031 301.523438 191.5 299.613281 188.285156 300 C 187.675781 300.109375 187.101562 300.210938 186.507812 300.617188 C 183.683594 302.558594 187.378906 306.816406 192.890625 307.964844 " fill-opacity="1" fill-rule="nonzero"/><path fill="#b4b4b4" d="M 91.066406 74.058594 C 91.273438 75.292969 93.738281 73.269531 96.683594 69.449219 C 96.730469 69.382812 101.671875 62.949219 100.742188 61.914062 C 98.789062 61.378906 90.648438 71.59375 91.066406 74.058594 " fill-opacity="1" fill-rule="nonzero"/><path fill="#b4b4b4" d="M 193.894531 316.089844 C 196.515625 316.058594 197 314.71875 195.039062 312.90625 C 193.484375 311.472656 189.804688 309.414062 186.027344 309.628906 C 185.574219 309.675781 184.75 309.816406 184.320312 310.242188 C 182.449219 312.109375 189.070312 316.15625 193.894531 316.089844 " fill-opacity="1" fill-rule="nonzero"/><path fill="#b4b4b4" d="M 134.710938 78.121094 C 130.601562 78.53125 126.625 86.757812 128.804688 90.351562 C 130.597656 93.300781 135.554688 90.808594 137.160156 85.03125 C 137.941406 82.214844 137.9375 78.050781 134.710938 78.121094 " fill-opacity="1" fill-rule="nonzero"/><path fill="#b4b4b4" d="M 163.90625 118.238281 C 158.371094 119.230469 156.121094 127.683594 160.3125 131.734375 C 164.125 135.417969 171.09375 132.179688 170.90625 125.28125 C 170.816406 122.117188 168.882812 117.632812 163.90625 118.238281 " fill-opacity="1" fill-rule="nonzero"/><path fill="#b4b4b4" d="M 209.917969 279.820312 C 209.136719 277.609375 205.964844 274.359375 200.792969 275.058594 C 200.421875 275.128906 199.867188 275.257812 199.3125 275.492188 C 194.964844 277.320312 195.8125 282.796875 200.796875 285.09375 C 206.074219 287.523438 211.527344 284.371094 209.917969 279.820312 " fill-opacity="1" fill-rule="nonzero"/><path fill="#b4b4b4" d="M 81.917969 77.179688 C 84.011719 74.128906 86.585938 70.25 86.929688 69.105469 C 86.917969 69.070312 86.898438 69.019531 86.882812 68.984375 C 85.652344 69.40625 78.257812 80.527344 78.554688 81.511719 C 78.695312 81.460938 79.0625 81.335938 81.917969 77.179688 " fill-opacity="1" fill-rule="nonzero"/><path fill="#b4b4b4" d="M 92.300781 66.113281 C 92.351562 66.054688 97.398438 59.972656 97.40625 58.824219 C 97.390625 58.808594 97.371094 58.785156 97.355469 58.765625 C 95.925781 58.703125 87.296875 69.371094 88.03125 70.300781 C 88.664062 70.351562 90.976562 67.699219 92.300781 66.113281 " fill-opacity="1" fill-rule="nonzero"/><path fill="#b4b4b4" d="M 178.121094 322.253906 C 177.792969 322.234375 177.792969 322.234375 177.703125 322.316406 C 178.484375 323.085938 189.546875 325.816406 190.570312 325.496094 C 190.433594 325.417969 190.207031 325.292969 187.078125 324.421875 C 182.578125 323.175781 179.566406 322.445312 178.121094 322.253906 " fill-opacity="1" fill-rule="nonzero"/><path fill="#b4b4b4" d="M 204.351562 178.113281 C 198.289062 179.523438 196.726562 187.695312 201.738281 191.773438 C 207.121094 196.160156 214.5 191.8125 213.519531 184.832031 C 213.050781 181.476562 209.894531 177.167969 204.351562 178.113281 " fill-opacity="1" fill-rule="nonzero"/><path fill="#b4b4b4" d="M 214.414062 271.480469 C 214.414062 271.480469 214.417969 271.480469 214.417969 271.480469 C 214.417969 271.480469 214.421875 271.480469 214.421875 271.480469 C 214.425781 271.476562 214.425781 271.476562 214.425781 271.476562 C 214.429688 271.476562 214.429688 271.476562 214.433594 271.476562 C 214.433594 271.476562 214.4375 271.476562 214.4375 271.476562 C 214.4375 271.476562 214.441406 271.476562 214.441406 271.476562 C 214.441406 271.476562 214.445312 271.472656 214.445312 271.472656 C 220.109375 270.058594 219.21875 265.503906 219.097656 264.988281 C 218.507812 262.46875 215.652344 259.03125 210.191406 259.890625 C 208.039062 260.335938 206.886719 261.476562 206.390625 262.113281 C 203.261719 266.144531 207.605469 272.519531 214.410156 271.480469 C 214.410156 271.480469 214.414062 271.480469 214.414062 271.480469 " fill-opacity="1" fill-rule="nonzero"/><path fill="#b4b4b4" d="M 131.59375 65.335938 C 128.265625 65.566406 123.691406 73.003906 124.796875 76.386719 C 125.71875 79.210938 129.960938 77.207031 132.269531 71.808594 C 133.324219 69.347656 134.074219 65.410156 131.59375 65.335938 " fill-opacity="1" fill-rule="nonzero"/><path fill="#b4b4b4" d="M 104.335938 61.714844 C 104.296875 63.132812 107.054688 61.210938 110.246094 57.605469 C 111.886719 55.753906 115.015625 51.726562 114.214844 51.128906 C 112.164062 50.921875 104.410156 59.230469 104.335938 61.714844 " fill-opacity="1" fill-rule="nonzero"/><path fill="#b4b4b4" d="M 196.609375 321.84375 C 197.5625 321.558594 196.988281 320.695312 195.144531 319.652344 C 193.59375 318.769531 189.820312 317.128906 186.65625 317.203125 C 186.65625 317.203125 186.652344 317.203125 186.652344 317.203125 C 186.652344 317.203125 186.652344 317.203125 186.648438 317.203125 C 186.644531 317.203125 186.644531 317.203125 186.644531 317.203125 C 186.644531 317.203125 186.644531 317.203125 186.640625 317.203125 C 186.640625 317.203125 186.636719 317.203125 186.636719 317.203125 C 186.636719 317.203125 186.636719 317.203125 186.632812 317.203125 C 186.257812 317.242188 185.628906 317.304688 185.417969 317.625 C 184.355469 319.222656 193.664062 322.734375 196.609375 321.84375 " fill-opacity="1" fill-rule="nonzero"/><path fill="#b4b4b4" d="M 179.359375 131.761719 C 179.359375 131.761719 179.359375 131.761719 179.355469 131.761719 C 179.355469 131.761719 179.351562 131.765625 179.351562 131.765625 C 179.347656 131.765625 179.347656 131.765625 179.347656 131.765625 C 179.34375 131.765625 179.34375 131.765625 179.339844 131.765625 C 179.339844 131.765625 179.339844 131.765625 179.335938 131.765625 C 179.335938 131.765625 179.335938 131.765625 179.332031 131.769531 C 179.332031 131.769531 179.328125 131.769531 179.328125 131.769531 C 179.328125 131.769531 179.324219 131.769531 179.324219 131.769531 C 172.546875 133.59375 172.601562 142.207031 176.71875 145.355469 C 181.394531 148.933594 187.785156 144.773438 187.238281 138.507812 C 186.972656 135.492188 184.601562 130.992188 179.359375 131.761719 " fill-opacity="1" fill-rule="nonzero"/><path fill="#b4b4b4" d="M 170.671875 320.980469 L 171.105469 321.105469 C 170.785156 321.007812 170.453125 320.910156 170.140625 320.8125 L 170.671875 320.980469 " fill-opacity="1" fill-rule="nonzero"/><path fill="#b4b4b4" d="M 221.875 217.957031 C 221.074219 213.6875 216.839844 210.863281 212.625 211.792969 C 205.796875 213.710938 205.503906 221.855469 210.628906 225.171875 C 216.121094 228.726562 223.058594 224.277344 221.875 217.957031 " fill-opacity="1" fill-rule="nonzero"/><path fill="#b4b4b4" d="M 112.773438 63.3125 C 113.121094 65.003906 116.375 62.789062 119.34375 58.839844 C 120.753906 56.96875 123.207031 52.972656 121.785156 52.589844 C 119.542969 52.394531 112.179688 60.382812 112.773438 63.3125 " fill-opacity="1" fill-rule="nonzero"/><path fill="#b4b4b4" d="M 229.753906 248.425781 C 229.378906 245.203125 225.726562 242.164062 221.078125 242.957031 C 215.710938 244.445312 214.179688 250.347656 218.300781 253.65625 C 223.519531 257.851562 230.375 253.769531 229.753906 248.425781 " fill-opacity="1" fill-rule="nonzero"/><path fill="#b4b4b4" d="M 200.878906 325.761719 C 201.328125 325.511719 199.308594 324.785156 198.679688 324.566406 C 196.109375 323.679688 192.019531 322.703125 190.265625 322.722656 C 190.011719 322.738281 189.578125 322.761719 189.578125 322.964844 C 189.570312 323.980469 199.601562 326.464844 200.878906 325.761719 " fill-opacity="1" fill-rule="nonzero"/><path fill="#b4b4b4" d="M 197.054688 145.066406 C 197.050781 145.070312 197.050781 145.070312 197.050781 145.070312 C 197.046875 145.070312 197.046875 145.070312 197.042969 145.070312 C 197.042969 145.070312 197.042969 145.070312 197.039062 145.070312 C 197.039062 145.070312 197.035156 145.070312 197.035156 145.070312 C 197.035156 145.074219 197.03125 145.074219 197.03125 145.074219 C 197.03125 145.074219 197.027344 145.074219 197.027344 145.074219 C 197.027344 145.074219 197.023438 145.074219 197.023438 145.074219 C 197.023438 145.074219 197.019531 145.074219 197.019531 145.074219 C 191.109375 146.792969 189.875 154.890625 194.992188 158.40625 C 200.351562 162.085938 206.214844 157.011719 205.371094 151.265625 C 204.921875 148.183594 201.777344 144.316406 197.054688 145.066406 " fill-opacity="1" fill-rule="nonzero"/><path fill="#b4b4b4" d="M 124.476562 63.355469 C 125.050781 65.3125 128.492188 63.023438 130.933594 59.058594 C 132.066406 57.21875 133.800781 53.34375 131.949219 53.117188 C 128.921875 53.488281 123.683594 60.664062 124.476562 63.355469 " fill-opacity="1" fill-rule="nonzero"/><path fill="#b4b4b4" d="M 99.863281 59.070312 C 99.863281 59.070312 99.867188 59.070312 99.867188 59.070312 C 99.867188 59.070312 99.867188 59.070312 99.867188 59.074219 C 100.59375 59.378906 103.945312 56.003906 104.957031 54.964844 C 105.160156 54.753906 109.957031 49.796875 109.722656 48.941406 C 109.699219 48.929688 109.667969 48.90625 109.640625 48.902344 C 108.652344 48.734375 99.179688 57.371094 99.863281 59.070312 " fill-opacity="1" fill-rule="nonzero"/><path fill="#b4b4b4" d="M 219.683594 300.191406 C 218.90625 298.511719 216.042969 296.394531 212.125 296.929688 C 211.570312 297.035156 211.015625 297.21875 210.601562 297.441406 C 207.675781 299.011719 208.953125 302.546875 212.957031 303.957031 C 217.222656 305.460938 221.117188 303.28125 219.683594 300.191406 " fill-opacity="1" fill-rule="nonzero"/><path fill="#b4b4b4" d="M 159.40625 99.988281 C 162.507812 103.351562 167.796875 99.878906 167.847656 94.445312 C 167.875 91.828125 166.335938 88.320312 162.832031 88.726562 C 158.527344 89.527344 156.351562 96.683594 159.40625 99.988281 " fill-opacity="1" fill-rule="nonzero"/><path fill="#b4b4b4" d="M 210.136719 313.34375 C 213.789062 314.003906 215.984375 312.4375 214.492188 310.238281 C 213.191406 308.316406 209.652344 306.988281 206.917969 307.390625 C 206.476562 307.472656 205.738281 307.617188 205.179688 308.058594 C 203.210938 309.628906 205.988281 312.589844 210.136719 313.34375 " fill-opacity="1" fill-rule="nonzero"/><path fill="#b4b4b4" d="M 153.210938 76.417969 C 148.886719 77.375 146.839844 84.578125 149.242188 87.332031 C 151.464844 89.875 156.128906 87.335938 156.8125 82.132812 C 157.214844 79.082031 155.953125 76.027344 153.210938 76.417969 " fill-opacity="1" fill-rule="nonzero"/><path fill="#b4b4b4" d="M 227.15625 288.03125 C 226.546875 286.234375 224.070312 283.8125 219.746094 284.519531 C 219.539062 284.5625 219.089844 284.683594 219.085938 284.683594 C 214.679688 286.023438 215.179688 290.484375 218.832031 292.386719 C 223.28125 294.703125 228.492188 291.972656 227.15625 288.03125 " fill-opacity="1" fill-rule="nonzero"/><path fill="#b4b4b4" d="M 146.90625 64.386719 C 143.585938 64.808594 140.320312 71.578125 142.050781 74.445312 C 143.5 76.839844 147.558594 74.773438 148.898438 70.054688 C 149.566406 67.699219 149.589844 64.242188 146.90625 64.386719 " fill-opacity="1" fill-rule="nonzero"/><path fill="#b4b4b4" d="M 175.492188 101.328125 C 169.96875 102.769531 169.671875 110.097656 172.859375 112.847656 C 176.160156 115.691406 181.828125 112.84375 181.5625 107.191406 C 181.382812 103.339844 178.660156 100.710938 175.492188 101.328125 " fill-opacity="1" fill-rule="nonzero"/><path fill="#b4b4b4" d="M 210.746094 320.296875 C 212.824219 320.167969 213.234375 319.203125 211.746094 317.949219 C 210.1875 316.636719 207.035156 315.46875 204.460938 315.78125 C 204.0625 315.847656 203.402344 315.953125 203.03125 316.300781 C 201.496094 317.742188 206.902344 320.542969 210.746094 320.296875 " fill-opacity="1" fill-rule="nonzero"/><path fill="#b4b4b4" d="M 212.898438 324.894531 C 213.640625 324.671875 213.242188 324.132812 211.859375 323.492188 C 210.386719 322.808594 207.304688 321.847656 204.867188 322.003906 C 204.492188 322.042969 204.015625 322.132812 203.863281 322.363281 C 203.140625 323.46875 210.652344 325.574219 212.898438 324.894531 " fill-opacity="1" fill-rule="nonzero"/><path fill="#b4b4b4" d="M 127.605469 50.644531 C 127.875 51.84375 130.582031 50.050781 133.179688 46.953125 C 135.222656 44.519531 136.722656 41.851562 135.699219 41.761719 C 133.300781 41.976562 127.175781 48.699219 127.605469 50.644531 " fill-opacity="1" fill-rule="nonzero"/><g clip-path="url(#766c6bcd8e)"><path fill="#b4b4b4" d="M 197.09375 326.257812 C 196.8125 326.253906 196.8125 326.253906 196.746094 326.3125 C 197.480469 326.777344 206.980469 328.042969 207.679688 327.765625 C 207.433594 327.703125 207.105469 327.652344 204.578125 327.265625 C 200.585938 326.660156 198.386719 326.324219 197.09375 326.257812 " fill-opacity="1" fill-rule="nonzero"/></g><path fill="#b4b4b4" d="M 144.511719 58.007812 C 145.671875 55.421875 145.789062 52.628906 144.09375 52.757812 C 141.097656 53.308594 137.355469 59.566406 138.535156 62.058594 C 139.488281 64.078125 142.785156 61.847656 144.511719 58.007812 " fill-opacity="1" fill-rule="nonzero"/><path fill="#b4b4b4" d="M 113.511719 47.988281 C 113.367188 48.8125 115.589844 47.371094 118.683594 44.640625 C 118.734375 44.59375 123.847656 40.035156 123.476562 39.429688 C 122.105469 39.175781 113.816406 46.296875 113.511719 47.988281 " fill-opacity="1" fill-rule="nonzero"/><path fill="#b4b4b4" d="M 224.722656 191.914062 C 218.28125 193.855469 218.539062 201.300781 222.34375 204.359375 C 226.789062 207.9375 234.125 204.652344 233.175781 197.964844 C 232.5625 193.636719 228.769531 190.917969 224.722656 191.914062 " fill-opacity="1" fill-rule="nonzero"/><path fill="#b4b4b4" d="M 128.351562 40.972656 C 126.371094 40.933594 118.835938 48.097656 118.976562 49.882812 C 119.050781 50.8125 121.269531 49.640625 124.726562 46.128906 C 124.914062 45.9375 129.320312 41.453125 128.351562 40.972656 " fill-opacity="1" fill-rule="nonzero"/><path fill="#b4b4b4" d="M 232.960938 224.734375 C 227.167969 226.203125 226.484375 233.050781 230.582031 235.949219 C 235.164062 239.195312 241.789062 235.335938 241.007812 229.875 C 240.644531 227.339844 238.136719 223.699219 232.960938 224.734375 " fill-opacity="1" fill-rule="nonzero"/><path fill="#b4b4b4" d="M 97.5625 55.066406 C 97.578125 55.039062 97.574219 54.992188 97.578125 54.964844 C 96.648438 55.378906 89.152344 64.246094 89.132812 64.949219 C 89.347656 64.820312 89.902344 64.226562 92.359375 61.363281 C 96.382812 56.679688 97.242188 55.601562 97.5625 55.066406 " fill-opacity="1" fill-rule="nonzero"/><path fill="#b4b4b4" d="M 216.359375 158.457031 C 209.867188 160.433594 210.40625 168.175781 214.589844 170.957031 C 219.429688 174.175781 225.457031 170.078125 224.515625 164.214844 C 223.867188 160.175781 220.132812 157.539062 216.359375 158.457031 " fill-opacity="1" fill-rule="nonzero"/><path fill="#b4b4b4" d="M 190.832031 113.871094 C 185.40625 115.421875 184.945312 122.609375 188.902344 125.476562 C 193.042969 128.480469 198.460938 124.652344 197.683594 119.269531 C 197.328125 116.804688 195.152344 113.15625 190.832031 113.871094 " fill-opacity="1" fill-rule="nonzero"/><path fill="#b4b4b4" d="M 236.59375 274.09375 C 236.09375 271.640625 233.375 269.433594 229.308594 270.175781 C 224.3125 271.339844 223.78125 276.300781 227.210938 278.664062 C 231.355469 281.523438 237.496094 278.53125 236.59375 274.09375 " fill-opacity="1" fill-rule="nonzero"/><path fill="#b4b4b4" d="M 103.015625 51.628906 C 103.0625 51.582031 108.011719 46.820312 108.339844 45.984375 C 108.339844 45.980469 108.339844 45.980469 108.339844 45.980469 C 108.339844 45.980469 108.339844 45.980469 108.324219 45.9375 C 107.257812 45.894531 98.828125 54.113281 99.023438 55 C 99.402344 55.035156 101.6875 52.902344 103.015625 51.628906 " fill-opacity="1" fill-rule="nonzero"/><path fill="#b4b4b4" d="M 206.996094 137.734375 C 211.65625 140.78125 216.496094 136.398438 215.621094 131.539062 C 215.167969 129.007812 212.554688 125.628906 208.398438 126.417969 C 203.878906 127.566406 202.265625 134.636719 206.996094 137.734375 " fill-opacity="1" fill-rule="nonzero"/><path fill="#b4b4b4" d="M 247.394531 258.152344 C 247.058594 255.597656 244.292969 253.328125 240.410156 254.101562 C 236.21875 255.160156 234.074219 260.226562 237.839844 263.042969 C 242.167969 266.28125 247.972656 262.519531 247.394531 258.152344 " fill-opacity="1" fill-rule="nonzero"/><g clip-path="url(#f981ebbb87)"><path fill="#b4b4b4" d="M 208.382812 326.113281 C 207.972656 326.152344 207.855469 326.1875 207.820312 326.292969 C 208.203125 327.058594 215.871094 327.890625 216.851562 327.519531 C 216.855469 327.5 216.859375 327.472656 216.863281 327.453125 C 216.785156 327.394531 216.574219 327.238281 214.699219 326.867188 C 214.003906 326.730469 210.417969 326.042969 208.382812 326.113281 " fill-opacity="1" fill-rule="nonzero"/></g><path fill="#b4b4b4" d="M 138.5 49.890625 C 138.765625 51.445312 141.378906 50.058594 143.6875 46.507812 C 145.15625 44.25 145.984375 41.839844 144.757812 41.878906 C 142.535156 42.214844 138.148438 47.832031 138.5 49.890625 " fill-opacity="1" fill-rule="nonzero"/><path fill="#b4b4b4" d="M 115.640625 42.222656 C 117.546875 40.683594 120.765625 38.011719 120.910156 37.414062 C 120.328125 36.890625 111.566406 43.964844 111.441406 45.058594 C 111.519531 45.136719 111.746094 45.367188 115.640625 42.222656 " fill-opacity="1" fill-rule="nonzero"/><path fill="#b4b4b4" d="M 171.054688 82.667969 C 173.421875 84.941406 177.582031 82.683594 177.460938 78.179688 C 177.414062 76.425781 176.484375 73.226562 173.308594 73.679688 C 169.671875 74.445312 168.679688 80.386719 171.054688 82.667969 " fill-opacity="1" fill-rule="nonzero"/><path fill="#b4b4b4" d="M 229.273438 303.972656 C 229.039062 304.03125 228.722656 304.105469 228.496094 304.1875 C 225.652344 305.207031 226.285156 307.832031 228.816406 308.972656 C 231.714844 310.277344 235.832031 308.910156 234.890625 306.316406 C 234.4375 305.078125 232.570312 303.433594 229.273438 303.972656 " fill-opacity="1" fill-rule="nonzero"/><path fill="#b4b4b4" d="M 166.839844 66.949219 C 167.09375 64.457031 166.070312 62.101562 163.902344 62.457031 C 160.554688 63.273438 159.132812 68.835938 161.035156 71.011719 C 162.820312 73.054688 166.410156 71.074219 166.839844 66.949219 " fill-opacity="1" fill-rule="nonzero"/><path fill="#b4b4b4" d="M 225.507812 317.328125 C 228.210938 317.824219 230.609375 316.816406 229.449219 315.058594 C 228.507812 313.628906 226.046875 312.808594 223.847656 313.191406 C 223.492188 313.269531 222.898438 313.394531 222.4375 313.722656 C 220.917969 314.800781 222.609375 316.789062 225.507812 317.328125 " fill-opacity="1" fill-rule="nonzero"/><path fill="#b4b4b4" d="M 242.628906 295.199219 C 242.289062 293.808594 240.523438 291.980469 237.046875 292.628906 C 232.925781 293.726562 233.136719 297.121094 235.597656 298.550781 C 238.84375 300.4375 243.378906 298.273438 242.628906 295.199219 " fill-opacity="1" fill-rule="nonzero"/><path fill="#b4b4b4" d="M 236.703125 171.6875 C 231.0625 173.257812 231.328125 180.21875 234.859375 182.847656 C 238.855469 185.820312 245.269531 182.472656 244.140625 176.613281 C 243.722656 174.429688 241.625 170.589844 236.703125 171.6875 " fill-opacity="1" fill-rule="nonzero"/><path fill="#b4b4b4" d="M 142.621094 31.496094 C 140.917969 31.589844 134.300781 37.207031 134.292969 38.570312 C 134.285156 39.253906 136.078125 38.355469 139.085938 35.664062 C 139.128906 35.628906 143.40625 31.785156 142.621094 31.496094 " fill-opacity="1" fill-rule="nonzero"/><path fill="#b4b4b4" d="M 128.621094 37.53125 C 128.5625 38.105469 130.476562 36.992188 133.378906 34.757812 C 133.84375 34.402344 137.914062 31.257812 137.964844 30.628906 C 137.953125 30.617188 137.9375 30.601562 137.921875 30.589844 C 136.640625 30.507812 128.726562 36.414062 128.621094 37.53125 " fill-opacity="1" fill-rule="nonzero"/><path fill="#b4b4b4" d="M 243.085938 216.015625 C 246.933594 218.835938 253.324219 215.726562 252.527344 210.113281 C 252.21875 207.941406 250.300781 204.128906 245.246094 205.261719 C 239.109375 207.265625 240.042969 213.785156 243.085938 216.015625 " fill-opacity="1" fill-rule="nonzero"/><path fill="#b4b4b4" d="M 184.152344 94.359375 C 187.261719 96.917969 191.503906 93.867188 190.929688 89.488281 C 190.667969 87.507812 189.050781 84.570312 185.8125 85.109375 C 182.144531 85.960938 181.089844 91.839844 184.152344 94.359375 " fill-opacity="1" fill-rule="nonzero"/><path fill="#b4b4b4" d="M 259 240.332031 C 258.609375 237.523438 255.519531 235.691406 252.515625 236.492188 C 248.058594 237.9375 246.625 243.03125 249.957031 245.574219 C 254.027344 248.679688 259.601562 244.65625 259 240.332031 " fill-opacity="1" fill-rule="nonzero"/><path fill="#b4b4b4" d="M 226.050781 323.046875 C 227.34375 322.828125 227.519531 322.15625 226.476562 321.414062 C 225.621094 320.800781 223.414062 319.9375 221.128906 320.21875 C 220.378906 320.332031 220.066406 320.5625 219.933594 320.734375 C 219.039062 321.886719 223.328125 323.507812 226.050781 323.046875 " fill-opacity="1" fill-rule="nonzero"/><path fill="#b4b4b4" d="M 154.257812 59.386719 C 155.429688 61.40625 158.472656 59.40625 159.421875 55.992188 C 160.058594 53.71875 159.566406 51.347656 157.847656 51.578125 C 155.234375 52.183594 152.957031 57.144531 154.257812 59.386719 " fill-opacity="1" fill-rule="nonzero"/><path fill="#b4b4b4" d="M 246.835938 279.246094 C 243.402344 280.269531 242.058594 283.65625 244.316406 285.601562 C 247.492188 288.339844 252.574219 285.648438 252.339844 282.273438 C 252.191406 280.109375 249.464844 278.609375 246.835938 279.246094 " fill-opacity="1" fill-rule="nonzero"/><path fill="#b4b4b4" d="M 203.523438 106.71875 C 203.523438 106.71875 203.523438 106.71875 203.527344 106.71875 C 203.527344 106.71875 203.527344 106.71875 203.53125 106.71875 C 203.53125 106.71875 203.53125 106.71875 203.53125 106.714844 C 203.53125 106.71875 203.53125 106.714844 203.535156 106.714844 C 203.535156 106.714844 203.535156 106.714844 203.539062 106.714844 C 206.464844 105.765625 207.121094 102.820312 206.847656 101.070312 C 206.402344 98.183594 203.570312 96.035156 201.027344 96.648438 C 200.511719 96.8125 199.441406 97.152344 198.554688 98.542969 C 196.078125 102.402344 199.191406 107.523438 203.523438 106.71875 " fill-opacity="1" fill-rule="nonzero"/><path fill="#b4b4b4" d="M 226.125 149.253906 C 230.621094 152.640625 235.613281 148.527344 234.726562 143.722656 C 234.195312 140.855469 231.355469 138.222656 227.683594 138.976562 C 223.242188 140.445312 222.339844 146.402344 226.125 149.253906 " fill-opacity="1" fill-rule="nonzero"/><path fill="#b4b4b4" d="M 125.609375 35.683594 C 126.011719 35.808594 128.824219 33.929688 130.011719 33.117188 C 130.0625 33.082031 134.988281 29.707031 135.121094 29.183594 C 134.167969 28.949219 125.546875 34.839844 125.609375 35.683594 " fill-opacity="1" fill-rule="nonzero"/><path fill="#b4b4b4" d="M 155.320312 41.238281 C 153.355469 41.675781 150.34375 46.230469 151.117188 48.265625 C 151.800781 50.070312 154.5 47.738281 155.675781 44.910156 C 156.433594 43.085938 156.445312 41.128906 155.320312 41.238281 " fill-opacity="1" fill-rule="nonzero"/><path fill="#b4b4b4" d="M 148.9375 31.800781 C 147.574219 31.835938 142.109375 36.980469 142.140625 38.648438 C 142.164062 39.710938 144.605469 37.914062 146.617188 35.714844 C 147.804688 34.414062 149.707031 31.929688 148.9375 31.800781 " fill-opacity="1" fill-rule="nonzero"/><path fill="#b4b4b4" d="M 226.484375 325.648438 C 225.144531 325.210938 222.65625 324.84375 221.328125 325.003906 C 221.085938 325.042969 220.679688 325.109375 220.617188 325.304688 C 220.332031 326.203125 226.273438 326.894531 227.363281 326.394531 C 227.800781 326.195312 227.195312 325.878906 226.484375 325.648438 " fill-opacity="1" fill-rule="nonzero"/><path fill="#b4b4b4" d="M 109.867188 42.492188 C 109.878906 42.472656 109.894531 42.441406 109.90625 42.421875 C 109.335938 42.671875 102.320312 49.101562 101.953125 49.890625 C 102.082031 49.796875 102.082031 49.796875 104.980469 47.101562 C 108.691406 43.648438 109.570312 42.828125 109.867188 42.492188 " fill-opacity="1" fill-rule="nonzero"/><path fill="#b4b4b4" d="M 115.683594 38.972656 C 120.246094 35.492188 120.589844 35.09375 120.84375 34.796875 C 120.355469 34.535156 112.511719 40.535156 112.449219 41.21875 C 112.527344 41.226562 112.707031 41.238281 115.683594 38.972656 " fill-opacity="1" fill-rule="nonzero"/><path fill="#b4b4b4" d="M 144.457031 27.757812 C 144.652344 27.996094 145.855469 27.335938 148.757812 25.394531 C 149.371094 24.984375 152.441406 22.917969 152.582031 22.527344 C 152.574219 22.519531 152.566406 22.511719 152.554688 22.503906 C 151.980469 22.425781 144.570312 26.769531 144.457031 27.757812 " fill-opacity="1" fill-rule="nonzero"/><path fill="#b4b4b4" d="M 263.257812 267.382812 C 263.261719 267.335938 263.03125 262.933594 258.15625 264.242188 C 252.546875 265.960938 254.976562 270.449219 255.507812 270.988281 C 257.320312 272.847656 263.003906 271.859375 263.257812 267.382812 " fill-opacity="1" fill-rule="nonzero"/><path fill="#b4b4b4" d="M 156.257812 31.742188 C 154.765625 32.039062 151.394531 36.238281 151.574219 37.574219 C 151.710938 38.589844 153.636719 37.488281 155.25 35.113281 C 155.640625 34.539062 157.523438 31.675781 156.257812 31.742188 " fill-opacity="1" fill-rule="nonzero"/><g clip-path="url(#5ca130cc46)"><path fill="#b4b4b4" d="M 229.226562 327.59375 C 226.726562 327.488281 225.605469 327.472656 224.785156 327.539062 C 224.363281 327.582031 224.347656 327.609375 224.320312 327.65625 C 224.878906 327.976562 230.113281 327.894531 230.871094 327.707031 C 230.824219 327.675781 230.804688 327.660156 229.226562 327.59375 " fill-opacity="1" fill-rule="nonzero"/></g><path fill="#b4b4b4" d="M 262.886719 226.316406 C 263.632812 226.878906 265.695312 227.980469 268.625 226.050781 C 269.585938 225.417969 271.136719 223.9375 270.742188 221.144531 C 270.21875 217.484375 267.273438 216.988281 264.910156 217.671875 C 260.144531 219.347656 260.636719 224.628906 262.886719 226.316406 " fill-opacity="1" fill-rule="nonzero"/><path fill="#b4b4b4" d="M 255.503906 194.511719 C 257.839844 196.445312 264.355469 195.34375 263.703125 189.074219 C 263.699219 189.019531 262.863281 183.394531 257.386719 184.792969 C 251.542969 186.546875 253.546875 192.890625 255.503906 194.511719 " fill-opacity="1" fill-rule="nonzero"/><path fill="#b4b4b4" d="M 246.871094 160.910156 C 247.324219 161.214844 249.703125 162.652344 252.417969 160.769531 C 253.605469 159.949219 254.902344 158.410156 254.324219 155.746094 C 253.582031 152.289062 251.105469 150.71875 247.867188 151.648438 C 243.113281 153.355469 244.183594 159.074219 246.871094 160.910156 " fill-opacity="1" fill-rule="nonzero"/><path fill="#b4b4b4" d="M 217.921875 117.253906 C 220.628906 118.835938 225.480469 117.371094 224.433594 112.511719 C 223.890625 109.988281 221.753906 107.78125 218.714844 108.4375 C 213.941406 109.777344 215.1875 115.660156 217.921875 117.253906 " fill-opacity="1" fill-rule="nonzero"/><path fill="#b4b4b4" d="M 133.835938 27.53125 C 133.835938 27.515625 133.820312 27.503906 133.8125 27.496094 C 133.027344 27.515625 126.285156 31.628906 125.347656 32.851562 C 125.757812 32.796875 126.722656 32.253906 129.179688 30.699219 C 132.667969 28.496094 133.710938 27.78125 133.835938 27.53125 " fill-opacity="1" fill-rule="nonzero"/><path fill="#b4b4b4" d="M 238.347656 317.523438 C 238.085938 317.585938 237.648438 317.6875 237.328125 317.910156 C 236.539062 318.464844 236.8125 319.617188 238.804688 320.074219 C 240.507812 320.464844 242.835938 319.835938 242.046875 318.554688 C 241.566406 317.773438 240.234375 317.148438 238.347656 317.523438 " fill-opacity="1" fill-rule="nonzero"/><path fill="#b4b4b4" d="M 149.507812 28.320312 C 150.148438 28.089844 151.019531 27.648438 153.074219 26.003906 C 154.753906 24.660156 156.671875 23.039062 156.285156 22.945312 C 156.28125 22.945312 156.277344 22.945312 156.277344 22.945312 C 155.4375 22.992188 148.796875 27.628906 149.507812 28.320312 " fill-opacity="1" fill-rule="nonzero"/><path fill="#b4b4b4" d="M 141.289062 26.738281 C 141.996094 26.542969 143.136719 25.953125 145.636719 24.488281 C 149.855469 22.015625 149.90625 21.871094 149.957031 21.738281 L 149.957031 21.734375 C 149.957031 21.734375 149.957031 21.734375 149.953125 21.734375 C 149.332031 21.648438 141.78125 25.757812 141.289062 26.738281 " fill-opacity="1" fill-rule="nonzero"/><path fill="#b4b4b4" d="M 244.046875 309.636719 C 243.914062 309.664062 243.785156 309.699219 243.660156 309.742188 C 241.972656 310.261719 241.09375 311.984375 243.234375 313.035156 C 245.121094 313.957031 248.308594 312.84375 247.730469 311.039062 C 247.621094 310.707031 246.941406 309.066406 244.046875 309.636719 " fill-opacity="1" fill-rule="nonzero"/><path fill="#b4b4b4" d="M 171.105469 55.714844 C 172.039062 56.921875 174.84375 56.542969 175.167969 52.738281 C 175.171875 52.703125 175.152344 49.347656 172.921875 49.664062 C 170.378906 50.207031 170.039062 54.34375 171.105469 55.714844 " fill-opacity="1" fill-rule="nonzero"/><path fill="#b4b4b4" d="M 180.960938 66.214844 C 180.976562 66.222656 182.40625 67.410156 183.746094 66.460938 C 184.226562 66.125 185.507812 65.222656 185.367188 63.109375 C 185.359375 62.949219 185.074219 59.191406 182.160156 59.6875 C 179.308594 60.359375 179.238281 64.757812 180.960938 66.214844 " fill-opacity="1" fill-rule="nonzero"/><path fill="#b4b4b4" d="M 252.023438 299.601562 C 249.1875 300.398438 249.0625 302.621094 250.484375 303.648438 C 252.078125 304.800781 256.003906 303.757812 255.675781 301.253906 C 255.476562 299.730469 254.078125 299.09375 252.023438 299.601562 " fill-opacity="1" fill-rule="nonzero"/><path fill="#b4b4b4" d="M 237.242188 128.28125 C 239.425781 129.667969 244.277344 128.746094 243.4375 123.785156 C 243.300781 122.96875 241.761719 119.074219 237.765625 120.230469 C 233.15625 121.8125 235.332031 127.0625 237.242188 128.28125 " fill-opacity="1" fill-rule="nonzero"/><path fill="#b4b4b4" d="M 270.519531 247.410156 C 265.855469 248.980469 267.046875 253.003906 267.785156 253.945312 C 269.523438 256.15625 274.882812 254.796875 275.164062 250.375 C 275.207031 249.691406 274.535156 246.242188 270.519531 247.410156 " fill-opacity="1" fill-rule="nonzero"/><path fill="#b4b4b4" d="M 119.007812 34.808594 C 122.714844 32.085938 122.714844 32.085938 122.941406 31.886719 C 122.964844 31.863281 122.996094 31.835938 123.007812 31.808594 C 122.414062 32.058594 117.082031 36.03125 116.664062 36.53125 C 117.496094 36.023438 118.226562 35.382812 119.007812 34.808594 " fill-opacity="1" fill-rule="nonzero"/><g clip-path="url(#31295efef2)"><path fill="#b4b4b4" d="M 148.289062 20.789062 C 148.007812 20.632812 141.222656 23.945312 140.425781 24.828125 C 140.640625 24.894531 141.679688 24.382812 144.082031 23.132812 C 147.445312 21.382812 148.191406 20.96875 148.289062 20.789062 " fill-opacity="1" fill-rule="nonzero"/></g><path fill="#b4b4b4" d="M 238.222656 324.550781 C 239.34375 324.394531 239.5625 324.101562 238.917969 323.636719 C 238.90625 323.625 237.5 322.75 235.484375 323.105469 C 235.242188 323.15625 234.738281 323.257812 234.582031 323.46875 C 234.195312 323.984375 236.246094 324.828125 238.222656 324.550781 " fill-opacity="1" fill-rule="nonzero"/><path fill="#b4b4b4" d="M 168.207031 42.9375 C 168.449219 41.585938 168.449219 40.007812 167.066406 40.171875 C 164.960938 40.574219 164.125 44.585938 164.890625 45.578125 C 165.609375 46.507812 167.683594 45.839844 168.207031 42.9375 " fill-opacity="1" fill-rule="nonzero"/><path fill="#b4b4b4" d="M 265.5625 289.308594 C 265.527344 288.304688 265.039062 286.71875 262.164062 287.414062 C 257.96875 288.703125 259.691406 291.617188 260.074219 291.964844 C 261.472656 293.230469 265.65625 292.066406 265.5625 289.308594 " fill-opacity="1" fill-rule="nonzero"/><path fill="#b4b4b4" d="M 158.929688 25.632812 C 159.011719 25.550781 159.121094 25.4375 159.203125 25.351562 C 161.132812 23.351562 161.019531 23.125 160.761719 23.132812 C 159.765625 23.289062 155.917969 26.847656 155.863281 27.664062 C 155.835938 28.035156 156.574219 28.035156 158.929688 25.632812 " fill-opacity="1" fill-rule="nonzero"/><path fill="#b4b4b4" d="M 193.898438 76.78125 C 195.710938 77.984375 199.15625 76.84375 198.40625 73.234375 C 198.015625 71.347656 196.789062 69.535156 194.515625 70.089844 C 191.050781 71.125 192.25 75.695312 193.898438 76.78125 " fill-opacity="1" fill-rule="nonzero"/><path fill="#b4b4b4" d="M 209.449219 87.199219 C 211.617188 88.46875 214.917969 86.894531 213.921875 83.558594 C 213.519531 82.203125 212.4375 80.027344 209.699219 80.648438 C 206.164062 81.628906 207.671875 86.15625 209.449219 87.199219 " fill-opacity="1" fill-rule="nonzero"/><path fill="#b4b4b4" d="M 267.414062 171.710938 C 269.363281 173.492188 274.34375 172.902344 273.910156 167.304688 C 273.789062 165.726562 271.878906 164.4375 271.855469 164.425781 C 270.628906 163.664062 269.472656 163.980469 268.847656 164.148438 C 264.558594 165.5625 265.773438 170.207031 267.414062 171.710938 " fill-opacity="1" fill-rule="nonzero"/><path fill="#b4b4b4" d="M 235.539062 326.292969 C 235.367188 326.320312 235.015625 326.382812 235.023438 326.472656 C 235.035156 326.601562 235.851562 326.746094 237.152344 326.753906 C 237.789062 326.757812 239.285156 326.671875 239.355469 326.503906 C 239.316406 326.464844 239.242188 326.429688 238.742188 326.347656 C 238.726562 326.347656 236.925781 326.082031 235.539062 326.292969 " fill-opacity="1" fill-rule="nonzero"/><path fill="#b4b4b4" d="M 162.121094 35.667969 C 162.210938 35.914062 162.496094 36.425781 163.28125 35.84375 C 163.714844 35.523438 164.355469 34.941406 164.890625 33.621094 C 165.269531 32.671875 165.765625 31.097656 164.785156 31.167969 C 163.472656 31.378906 161.75 34.621094 162.121094 35.667969 " fill-opacity="1" fill-rule="nonzero"/><path fill="#b4b4b4" d="M 275.890625 205.175781 C 276.964844 205.925781 279.097656 205.960938 279.847656 205.441406 C 280.546875 204.953125 282.679688 203.464844 282.242188 200.746094 C 281.890625 198.558594 280.277344 196.753906 277.460938 197.65625 C 273.011719 199.292969 274.292969 204.0625 275.890625 205.175781 " fill-opacity="1" fill-rule="nonzero"/><path fill="#b4b4b4" d="M 130.429688 27.890625 C 130.464844 27.871094 133.972656 25.828125 134.363281 25.457031 C 134.363281 25.445312 134.363281 25.429688 134.363281 25.417969 C 133.789062 25.519531 128.484375 28.589844 127.78125 29.324219 C 127.78125 29.335938 127.785156 29.351562 127.789062 29.359375 C 128.007812 29.296875 128.652344 28.925781 130.429688 27.890625 " fill-opacity="1" fill-rule="nonzero"/><path fill="#b4b4b4" d="M 283.464844 229.226562 C 280.152344 230.3125 279.847656 233.730469 281.414062 235.300781 C 283.152344 237.042969 287.289062 235.179688 287.234375 231.972656 C 287.222656 231.339844 286.988281 228.222656 283.464844 229.226562 " fill-opacity="1" fill-rule="nonzero"/><path fill="#b4b4b4" d="M 276.832031 275.230469 C 276.839844 274.410156 276.5625 272.574219 273.808594 273.296875 C 270.597656 274.269531 270.679688 276.996094 271.574219 277.9375 C 272.9375 279.375 276.808594 277.800781 276.832031 275.230469 " fill-opacity="1" fill-rule="nonzero"/><path fill="#b4b4b4" d="M 257.816406 138.816406 C 260.074219 140.25 263.972656 138.488281 262.992188 134.945312 C 262.738281 134.027344 261.648438 131.113281 258.308594 132.042969 C 254.542969 133.292969 255.953125 137.632812 257.816406 138.816406 " fill-opacity="1" fill-rule="nonzero"/><path fill="#b4b4b4" d="M 227.070312 97.332031 C 228.695312 98.363281 232.234375 97.714844 231.378906 94.117188 C 231.371094 94.082031 230.367188 90.5 227.175781 91.433594 C 223.667969 92.636719 225.816406 96.535156 227.070312 97.332031 " fill-opacity="1" fill-rule="nonzero"/><path fill="#b4b4b4" d="M 165.242188 25.03125 C 165.394531 24.824219 166.703125 23.023438 166.0625 23.023438 C 165.121094 23.21875 163.144531 25.921875 163.175781 26.519531 C 163.179688 26.53125 163.457031 27.457031 165.242188 25.03125 " fill-opacity="1" fill-rule="nonzero"/><path fill="#b4b4b4" d="M 250.078125 320.523438 C 249.976562 320.546875 249.878906 320.574219 249.78125 320.605469 C 248.886719 320.910156 249.109375 321.375 249.542969 321.59375 C 250.253906 321.949219 252.003906 321.660156 251.753906 320.894531 C 251.753906 320.890625 251.378906 320.257812 250.078125 320.523438 " fill-opacity="1" fill-rule="nonzero"/><path fill="#b4b4b4" d="M 286.3125 257.550781 C 284.605469 258.179688 283.402344 260.300781 284.511719 261.613281 C 285.636719 262.945312 288.6875 261.703125 288.90625 259.304688 C 289.074219 257.472656 287.726562 257.105469 286.3125 257.550781 " fill-opacity="1" fill-rule="nonzero"/><path fill="#b4b4b4" d="M 246.664062 107.308594 C 248.726562 108.332031 251.042969 106.707031 250.078125 104.203125 C 249.449219 102.570312 248.003906 101.800781 246.480469 102.289062 C 243.703125 103.332031 245.164062 106.566406 246.664062 107.308594 " fill-opacity="1" fill-rule="nonzero"/><path fill="#b4b4b4" d="M 255.980469 314.160156 C 254.65625 314.492188 254.445312 315.324219 254.882812 315.75 C 255.640625 316.488281 257.734375 315.835938 257.683594 314.878906 C 257.664062 314.472656 257.28125 313.871094 255.980469 314.160156 " fill-opacity="1" fill-rule="nonzero"/><path fill="#b4b4b4" d="M 288.507812 182.351562 C 289.796875 183.316406 292.847656 182.214844 292.402344 179.417969 C 292.179688 178.019531 291.453125 176.496094 289.269531 177.171875 C 286.425781 178.1875 287.289062 181.441406 288.507812 182.351562 " fill-opacity="1" fill-rule="nonzero"/><path fill="#b4b4b4" d="M 296.238281 210.003906 C 293.503906 210.980469 294.132812 213.964844 295.0625 214.636719 C 295.074219 214.644531 296.257812 215.441406 297.71875 214.363281 C 298.042969 214.121094 299.039062 213.390625 298.882812 211.8125 C 298.789062 210.859375 298.324219 209.351562 296.238281 210.003906 " fill-opacity="1" fill-rule="nonzero"/><path fill="#b4b4b4" d="M 264.175781 305.5625 C 262.140625 306.167969 262.9375 307.542969 262.945312 307.554688 C 263.46875 308.210938 265.71875 307.710938 265.839844 306.378906 C 265.875 305.988281 265.785156 305.128906 264.175781 305.5625 " fill-opacity="1" fill-rule="nonzero"/><path fill="#b4b4b4" d="M 201.402344 60.109375 C 202.304688 60.621094 204.1875 60.105469 203.558594 58.140625 C 203.359375 57.515625 202.738281 56.097656 201.289062 56.484375 C 199.328125 57.117188 200.535156 59.613281 201.402344 60.109375 " fill-opacity="1" fill-rule="nonzero"/><path fill="#b4b4b4" d="M 248.449219 324.539062 C 248.28125 324.457031 247.789062 324.285156 246.933594 324.460938 C 246.792969 324.488281 246.507812 324.554688 246.457031 324.648438 C 246.324219 324.894531 247.636719 325.039062 248.378906 324.785156 C 248.613281 324.707031 248.636719 324.625 248.449219 324.539062 " fill-opacity="1" fill-rule="nonzero"/><path fill="#b4b4b4" d="M 188.6875 50.785156 C 189.335938 51.335938 191.121094 51.273438 190.867188 49.125 C 190.863281 49.105469 190.511719 47 188.9375 47.378906 C 187.394531 47.84375 187.945312 50.152344 188.6875 50.785156 " fill-opacity="1" fill-rule="nonzero"/><path fill="#b4b4b4" d="M 174.78125 31.863281 C 174.859375 31.367188 174.960938 30.222656 174.195312 30.328125 C 173.207031 30.542969 172.972656 32.5625 173.355469 33.011719 C 173.710938 33.425781 174.574219 33.164062 174.78125 31.863281 " fill-opacity="1" fill-rule="nonzero"/><path fill="#b4b4b4" d="M 179.34375 41.777344 C 179.539062 41.945312 180.058594 42.269531 180.664062 41.71875 C 180.921875 41.484375 181.214844 41.023438 181.144531 40.148438 C 181.113281 39.722656 180.921875 38.359375 179.851562 38.589844 C 178.464844 38.984375 178.734375 41.265625 179.34375 41.777344 " fill-opacity="1" fill-rule="nonzero"/><path fill="#b4b4b4" d="M 278.949219 148.980469 C 280.0625 149.640625 283.0625 149.128906 282.398438 146.054688 C 282.390625 146.027344 281.707031 143.410156 279.261719 144.15625 C 276.484375 145.148438 277.804688 148.300781 278.949219 148.980469 " fill-opacity="1" fill-rule="nonzero"/><path fill="#b4b4b4" d="M 216.894531 69.300781 C 217.960938 69.703125 218.246094 69.386719 218.605469 68.988281 C 218.78125 68.789062 219.152344 68.226562 218.746094 67.246094 C 218.296875 66.171875 217.320312 65.613281 216.367188 65.890625 C 216.320312 65.90625 216.261719 65.925781 216.214844 65.941406 C 214.949219 66.480469 215.40625 68.738281 216.894531 69.300781 " fill-opacity="1" fill-rule="nonzero"/><path fill="#b4b4b4" d="M 274.589844 294.613281 C 273.167969 295.042969 272.730469 296.21875 273.128906 296.800781 C 273.507812 297.351562 274.632812 297.074219 274.644531 297.070312 C 274.65625 297.066406 275.839844 296.4375 276.007812 295.632812 C 276.089844 295.25 276 294.242188 274.589844 294.613281 " fill-opacity="1" fill-rule="nonzero"/><path fill="#b4b4b4" d="M 286.398438 281.734375 C 284.953125 282.246094 285.054688 283.476562 285.246094 283.738281 C 285.652344 284.277344 287.28125 283.777344 287.53125 282.621094 C 287.578125 282.394531 287.75 281.300781 286.398438 281.734375 " fill-opacity="1" fill-rule="nonzero"/><g clip-path="url(#b5a0625ed2)"><path fill="#b4b4b4" d="M 299.507812 240.300781 C 298.035156 240.824219 297.730469 242.582031 298.390625 243.308594 C 299.117188 244.109375 301.199219 243.082031 301.261719 241.546875 C 301.292969 240.863281 301.101562 239.785156 299.507812 240.300781 " fill-opacity="1" fill-rule="nonzero"/></g><path fill="#b4b4b4" d="M 267.226562 116.855469 C 268.28125 117.378906 270.1875 116.546875 269.496094 114.769531 C 269.226562 114.078125 268.570312 112.984375 267.175781 113.414062 C 265.125 114.148438 266.324219 116.402344 267.226562 116.855469 " fill-opacity="1" fill-rule="nonzero"/><path fill="#b4b4b4" d="M 234.421875 78.203125 C 234.496094 78.230469 235.167969 78.476562 235.621094 78.042969 C 235.992188 77.691406 236.078125 77.269531 235.882812 76.796875 C 235.878906 76.78125 235.28125 75.363281 234.058594 75.691406 C 234 75.710938 233.9375 75.734375 233.882812 75.761719 C 232.738281 76.296875 233.5625 77.863281 234.421875 78.203125 " fill-opacity="1" fill-rule="nonzero"/><g transform="matrix(1, 0, 0, 1, 15, 346)"><g clip-path="url(#a6501d3888)"><g fill="#d9d9d9" fill-opacity="1"><g transform="translate(2.255492, 15.140701)"><g><path d="M 6.09375 -3.8125 L 6.09375 0 L 4.09375 0 L 4.09375 -3.78125 L -0.140625 -10.78125 L 2 -10.78125 L 5.15625 -5.53125 L 8.34375 -10.78125 L 10.328125 -10.78125 Z M 6.09375 -3.8125 "/></g></g></g><g fill="#d9d9d9" fill-opacity="1"><g transform="translate(19.612849, 15.140701)"><g><path d="M 6.484375 0.15625 C 5.390625 0.15625 4.398438 -0.0820312 3.515625 -0.5625 C 2.628906 -1.039062 1.929688 -1.703125 1.421875 -2.546875 C 0.921875 -3.398438 0.671875 -4.347656 0.671875 -5.390625 C 0.671875 -6.441406 0.921875 -7.390625 1.421875 -8.234375 C 1.929688 -9.078125 2.628906 -9.738281 3.515625 -10.21875 C 4.398438 -10.695312 5.390625 -10.9375 6.484375 -10.9375 C 7.585938 -10.9375 8.578125 -10.695312 9.453125 -10.21875 C 10.335938 -9.738281 11.03125 -9.078125 11.53125 -8.234375 C 12.039062 -7.398438 12.296875 -6.453125 12.296875 -5.390625 C 12.296875 -4.335938 12.039062 -3.390625 11.53125 -2.546875 C 11.03125 -1.703125 10.335938 -1.039062 9.453125 -0.5625 C 8.578125 -0.0820312 7.585938 0.15625 6.484375 0.15625 Z M 6.484375 -1.609375 C 7.203125 -1.609375 7.847656 -1.769531 8.421875 -2.09375 C 9.003906 -2.414062 9.457031 -2.863281 9.78125 -3.4375 C 10.113281 -4.019531 10.28125 -4.671875 10.28125 -5.390625 C 10.28125 -6.109375 10.113281 -6.757812 9.78125 -7.34375 C 9.457031 -7.925781 9.003906 -8.378906 8.421875 -8.703125 C 7.847656 -9.023438 7.203125 -9.1875 6.484375 -9.1875 C 5.765625 -9.1875 5.117188 -9.023438 4.546875 -8.703125 C 3.972656 -8.378906 3.519531 -7.925781 3.1875 -7.34375 C 2.863281 -6.757812 2.703125 -6.109375 2.703125 -5.390625 C 2.703125 -4.671875 2.863281 -4.019531 3.1875 -3.4375 C 3.519531 -2.863281 3.972656 -2.414062 4.546875 -2.09375 C 5.117188 -1.769531 5.765625 -1.609375 6.484375 -1.609375 Z M 6.484375 -1.609375 "/></g></g></g><g fill="#d9d9d9" fill-opacity="1"><g transform="translate(39.756727, 15.140701)"><g><path d="M 6.078125 0.15625 C 4.585938 0.15625 3.425781 -0.257812 2.59375 -1.09375 C 1.769531 -1.9375 1.359375 -3.140625 1.359375 -4.703125 L 1.359375 -10.78125 L 3.359375 -10.78125 L 3.359375 -4.78125 C 3.359375 -2.664062 4.269531 -1.609375 6.09375 -1.609375 C 7.914062 -1.609375 8.828125 -2.664062 8.828125 -4.78125 L 8.828125 -10.78125 L 10.796875 -10.78125 L 10.796875 -4.703125 C 10.796875 -3.140625 10.378906 -1.9375 9.546875 -1.09375 C 8.722656 -0.257812 7.566406 0.15625 6.078125 0.15625 Z M 6.078125 0.15625 "/></g></g></g><g fill="#d9d9d9" fill-opacity="1"><g transform="translate(59.08467, 15.140701)"><g><path d="M 8.5 0 L 6.296875 -3.15625 C 6.203125 -3.144531 6.066406 -3.140625 5.890625 -3.140625 L 3.453125 -3.140625 L 3.453125 0 L 1.453125 0 L 1.453125 -10.78125 L 5.890625 -10.78125 C 6.816406 -10.78125 7.625 -10.625 8.3125 -10.3125 C 9.007812 -10.007812 9.539062 -9.570312 9.90625 -9 C 10.28125 -8.425781 10.46875 -7.742188 10.46875 -6.953125 C 10.46875 -6.140625 10.269531 -5.4375 9.875 -4.84375 C 9.488281 -4.257812 8.925781 -3.828125 8.1875 -3.546875 L 10.65625 0 Z M 8.453125 -6.953125 C 8.453125 -7.640625 8.226562 -8.164062 7.78125 -8.53125 C 7.332031 -8.90625 6.671875 -9.09375 5.796875 -9.09375 L 3.453125 -9.09375 L 3.453125 -4.796875 L 5.796875 -4.796875 C 6.671875 -4.796875 7.332031 -4.984375 7.78125 -5.359375 C 8.226562 -5.734375 8.453125 -6.265625 8.453125 -6.953125 Z M 8.453125 -6.953125 "/></g></g></g><g fill="#d9d9d9" fill-opacity="1"><g transform="translate(77.519691, 15.140701)"><g/></g></g><g fill="#d9d9d9" fill-opacity="1"><g transform="translate(88.949893, 15.140701)"><g><path d="M 8.5 0 L 6.296875 -3.15625 C 6.203125 -3.144531 6.066406 -3.140625 5.890625 -3.140625 L 3.453125 -3.140625 L 3.453125 0 L 1.453125 0 L 1.453125 -10.78125 L 5.890625 -10.78125 C 6.816406 -10.78125 7.625 -10.625 8.3125 -10.3125 C 9.007812 -10.007812 9.539062 -9.570312 9.90625 -9 C 10.28125 -8.425781 10.46875 -7.742188 10.46875 -6.953125 C 10.46875 -6.140625 10.269531 -5.4375 9.875 -4.84375 C 9.488281 -4.257812 8.925781 -3.828125 8.1875 -3.546875 L 10.65625 0 Z M 8.453125 -6.953125 C 8.453125 -7.640625 8.226562 -8.164062 7.78125 -8.53125 C 7.332031 -8.90625 6.671875 -9.09375 5.796875 -9.09375 L 3.453125 -9.09375 L 3.453125 -4.796875 L 5.796875 -4.796875 C 6.671875 -4.796875 7.332031 -4.984375 7.78125 -5.359375 C 8.226562 -5.734375 8.453125 -6.265625 8.453125 -6.953125 Z M 8.453125 -6.953125 "/></g></g></g><g fill="#d9d9d9" fill-opacity="1"><g transform="translate(107.384914, 15.140701)"><g><path d="M 1.453125 -10.78125 L 3.453125 -10.78125 L 3.453125 0 L 1.453125 0 Z M 1.453125 -10.78125 "/></g></g></g><g fill="#d9d9d9" fill-opacity="1"><g transform="translate(119.477106, 15.140701)"><g><path d="M 8.8125 -5.515625 L 10.703125 -5.515625 L 10.703125 -1.21875 C 10.148438 -0.769531 9.503906 -0.425781 8.765625 -0.1875 C 8.023438 0.0390625 7.265625 0.15625 6.484375 0.15625 C 5.390625 0.15625 4.398438 -0.0820312 3.515625 -0.5625 C 2.628906 -1.039062 1.929688 -1.703125 1.421875 -2.546875 C 0.921875 -3.390625 0.671875 -4.335938 0.671875 -5.390625 C 0.671875 -6.453125 0.921875 -7.398438 1.421875 -8.234375 C 1.929688 -9.078125 2.628906 -9.738281 3.515625 -10.21875 C 4.410156 -10.695312 5.410156 -10.9375 6.515625 -10.9375 C 7.421875 -10.9375 8.242188 -10.785156 8.984375 -10.484375 C 9.722656 -10.191406 10.34375 -9.757812 10.84375 -9.1875 L 9.578125 -7.953125 C 8.753906 -8.773438 7.765625 -9.1875 6.609375 -9.1875 C 5.847656 -9.1875 5.171875 -9.023438 4.578125 -8.703125 C 3.992188 -8.390625 3.535156 -7.941406 3.203125 -7.359375 C 2.867188 -6.785156 2.703125 -6.128906 2.703125 -5.390625 C 2.703125 -4.671875 2.867188 -4.023438 3.203125 -3.453125 C 3.535156 -2.878906 3.992188 -2.425781 4.578125 -2.09375 C 5.171875 -1.769531 5.84375 -1.609375 6.59375 -1.609375 C 7.4375 -1.609375 8.175781 -1.789062 8.8125 -2.15625 Z M 8.8125 -5.515625 "/></g></g></g><g fill="#d9d9d9" fill-opacity="1"><g transform="translate(138.54332, 15.140701)"><g><path d="M 11.03125 -10.78125 L 11.03125 0 L 9.03125 0 L 9.03125 -4.625 L 3.453125 -4.625 L 3.453125 0 L 1.453125 0 L 1.453125 -10.78125 L 3.453125 -10.78125 L 3.453125 -6.328125 L 9.03125 -6.328125 L 9.03125 -10.78125 Z M 11.03125 -10.78125 "/></g></g></g><g fill="#d9d9d9" fill-opacity="1"><g transform="translate(158.194551, 15.140701)"><g><path d="M 3.640625 -9.09375 L 0.0625 -9.09375 L 0.0625 -10.78125 L 9.21875 -10.78125 L 9.21875 -9.09375 L 5.640625 -9.09375 L 5.640625 0 L 3.640625 0 Z M 3.640625 -9.09375 "/></g></g></g><g fill="#d9d9d9" fill-opacity="1"><g transform="translate(174.643588, 15.140701)"><g/></g></g><g fill="#d9d9d9" fill-opacity="1"><g transform="translate(186.073791, 15.140701)"><g><path d="M 3.640625 -9.09375 L 0.0625 -9.09375 L 0.0625 -10.78125 L 9.21875 -10.78125 L 9.21875 -9.09375 L 5.640625 -9.09375 L 5.640625 0 L 3.640625 0 Z M 3.640625 -9.09375 "/></g></g></g><g fill="#d9d9d9" fill-opacity="1"><g transform="translate(202.522828, 15.140701)"><g><path d="M 6.484375 0.15625 C 5.390625 0.15625 4.398438 -0.0820312 3.515625 -0.5625 C 2.628906 -1.039062 1.929688 -1.703125 1.421875 -2.546875 C 0.921875 -3.398438 0.671875 -4.347656 0.671875 -5.390625 C 0.671875 -6.441406 0.921875 -7.390625 1.421875 -8.234375 C 1.929688 -9.078125 2.628906 -9.738281 3.515625 -10.21875 C 4.398438 -10.695312 5.390625 -10.9375 6.484375 -10.9375 C 7.585938 -10.9375 8.578125 -10.695312 9.453125 -10.21875 C 10.335938 -9.738281 11.03125 -9.078125 11.53125 -8.234375 C 12.039062 -7.398438 12.296875 -6.453125 12.296875 -5.390625 C 12.296875 -4.335938 12.039062 -3.390625 11.53125 -2.546875 C 11.03125 -1.703125 10.335938 -1.039062 9.453125 -0.5625 C 8.578125 -0.0820312 7.585938 0.15625 6.484375 0.15625 Z M 6.484375 -1.609375 C 7.203125 -1.609375 7.847656 -1.769531 8.421875 -2.09375 C 9.003906 -2.414062 9.457031 -2.863281 9.78125 -3.4375 C 10.113281 -4.019531 10.28125 -4.671875 10.28125 -5.390625 C 10.28125 -6.109375 10.113281 -6.757812 9.78125 -7.34375 C 9.457031 -7.925781 9.003906 -8.378906 8.421875 -8.703125 C 7.847656 -9.023438 7.203125 -9.1875 6.484375 -9.1875 C 5.765625 -9.1875 5.117188 -9.023438 4.546875 -8.703125 C 3.972656 -8.378906 3.519531 -7.925781 3.1875 -7.34375 C 2.863281 -6.757812 2.703125 -6.109375 2.703125 -5.390625 C 2.703125 -4.671875 2.863281 -4.019531 3.1875 -3.4375 C 3.519531 -2.863281 3.972656 -2.414062 4.546875 -2.09375 C 5.117188 -1.769531 5.765625 -1.609375 6.484375 -1.609375 Z M 6.484375 -1.609375 "/></g></g></g><g fill="#d9d9d9" fill-opacity="1"><g transform="translate(222.666706, 15.140701)"><g/></g></g><g fill="#d9d9d9" fill-opacity="1"><g transform="translate(234.096908, 15.140701)"><g><path d="M 5.15625 -4.515625 L 3.453125 -2.75 L 3.453125 0 L 1.453125 0 L 1.453125 -10.78125 L 3.453125 -10.78125 L 3.453125 -5.25 L 8.78125 -10.78125 L 11.03125 -10.78125 L 6.5 -5.96875 L 11.3125 0 L 8.96875 0 Z M 5.15625 -4.515625 "/></g></g></g><g fill="#d9d9d9" fill-opacity="1"><g transform="translate(252.501133, 15.140701)"><g><path d="M 11.03125 -10.78125 L 11.03125 0 L 9.375 0 L 3.4375 -7.296875 L 3.4375 0 L 1.453125 0 L 1.453125 -10.78125 L 3.09375 -10.78125 L 9.046875 -3.484375 L 9.046875 -10.78125 Z M 11.03125 -10.78125 "/></g></g></g><g fill="#d9d9d9" fill-opacity="1"><g transform="translate(272.152364, 15.140701)"><g><path d="M 6.484375 0.15625 C 5.390625 0.15625 4.398438 -0.0820312 3.515625 -0.5625 C 2.628906 -1.039062 1.929688 -1.703125 1.421875 -2.546875 C 0.921875 -3.398438 0.671875 -4.347656 0.671875 -5.390625 C 0.671875 -6.441406 0.921875 -7.390625 1.421875 -8.234375 C 1.929688 -9.078125 2.628906 -9.738281 3.515625 -10.21875 C 4.398438 -10.695312 5.390625 -10.9375 6.484375 -10.9375 C 7.585938 -10.9375 8.578125 -10.695312 9.453125 -10.21875 C 10.335938 -9.738281 11.03125 -9.078125 11.53125 -8.234375 C 12.039062 -7.398438 12.296875 -6.453125 12.296875 -5.390625 C 12.296875 -4.335938 12.039062 -3.390625 11.53125 -2.546875 C 11.03125 -1.703125 10.335938 -1.039062 9.453125 -0.5625 C 8.578125 -0.0820312 7.585938 0.15625 6.484375 0.15625 Z M 6.484375 -1.609375 C 7.203125 -1.609375 7.847656 -1.769531 8.421875 -2.09375 C 9.003906 -2.414062 9.457031 -2.863281 9.78125 -3.4375 C 10.113281 -4.019531 10.28125 -4.671875 10.28125 -5.390625 C 10.28125 -6.109375 10.113281 -6.757812 9.78125 -7.34375 C 9.457031 -7.925781 9.003906 -8.378906 8.421875 -8.703125 C 7.847656 -9.023438 7.203125 -9.1875 6.484375 -9.1875 C 5.765625 -9.1875 5.117188 -9.023438 4.546875 -8.703125 C 3.972656 -8.378906 3.519531 -7.925781 3.1875 -7.34375 C 2.863281 -6.757812 2.703125 -6.109375 2.703125 -5.390625 C 2.703125 -4.671875 2.863281 -4.019531 3.1875 -3.4375 C 3.519531 -2.863281 3.972656 -2.414062 4.546875 -2.09375 C 5.117188 -1.769531 5.765625 -1.609375 6.484375 -1.609375 Z M 6.484375 -1.609375 "/></g></g></g><g fill="#d9d9d9" fill-opacity="1"><g transform="translate(292.296242, 15.140701)"><g><path d="M 17.203125 -10.78125 L 13.640625 0 L 11.515625 0 L 8.84375 -7.984375 L 6.125 0 L 3.984375 0 L 0.421875 -10.78125 L 2.5 -10.78125 L 5.171875 -2.59375 L 7.96875 -10.78125 L 9.8125 -10.78125 L 12.546875 -2.546875 L 15.296875 -10.78125 Z M 17.203125 -10.78125 "/></g></g></g><g fill="#d9d9d9" fill-opacity="1"><g transform="translate(317.089457, 15.140701)"><g><path d="M 1.875 0.109375 C 1.53125 0.109375 1.234375 -0.0078125 0.984375 -0.25 C 0.734375 -0.488281 0.609375 -0.796875 0.609375 -1.171875 C 0.609375 -1.546875 0.726562 -1.851562 0.96875 -2.09375 C 1.21875 -2.332031 1.519531 -2.453125 1.875 -2.453125 C 2.238281 -2.453125 2.539062 -2.332031 2.78125 -2.09375 C 3.019531 -1.851562 3.140625 -1.546875 3.140625 -1.171875 C 3.140625 -0.796875 3.015625 -0.488281 2.765625 -0.25 C 2.523438 -0.0078125 2.226562 0.109375 1.875 0.109375 Z M 1.875 0.109375 "/></g></g></g><g fill="#d9d9d9" fill-opacity="1"><g transform="translate(328.027014, 15.140701)"><g><path d="M 1.875 0.109375 C 1.53125 0.109375 1.234375 -0.0078125 0.984375 -0.25 C 0.734375 -0.488281 0.609375 -0.796875 0.609375 -1.171875 C 0.609375 -1.546875 0.726562 -1.851562 0.96875 -2.09375 C 1.21875 -2.332031 1.519531 -2.453125 1.875 -2.453125 C 2.238281 -2.453125 2.539062 -2.332031 2.78125 -2.09375 C 3.019531 -1.851562 3.140625 -1.546875 3.140625 -1.171875 C 3.140625 -0.796875 3.015625 -0.488281 2.765625 -0.25 C 2.523438 -0.0078125 2.226562 0.109375 1.875 0.109375 Z M 1.875 0.109375 "/></g></g></g><g fill="#d9d9d9" fill-opacity="1"><g transform="translate(338.96457, 15.140701)"><g><path d="M 1.875 0.109375 C 1.53125 0.109375 1.234375 -0.0078125 0.984375 -0.25 C 0.734375 -0.488281 0.609375 -0.796875 0.609375 -1.171875 C 0.609375 -1.546875 0.726562 -1.851562 0.96875 -2.09375 C 1.21875 -2.332031 1.519531 -2.453125 1.875 -2.453125 C 2.238281 -2.453125 2.539062 -2.332031 2.78125 -2.09375 C 3.019531 -1.851562 3.140625 -1.546875 3.140625 -1.171875 C 3.140625 -0.796875 3.015625 -0.488281 2.765625 -0.25 C 2.523438 -0.0078125 2.226562 0.109375 1.875 0.109375 Z M 1.875 0.109375 "/></g></g></g></g></g></svg>